<svg xmlns="http://www.w3.org/2000/svg" viewBox="0 0 500 500"><g id="freepik--Shadow--inject-52"><path d="M458.875,460.0285c0,3.3867-93.51651,6.1322-208.875,6.1322s-208.875-2.7455-208.875-6.1322,93.5165-6.1323,208.875-6.1323,208.875,2.7455,208.875,6.1323Z" style="fill:#f5f5f5;"></path></g><g id="freepik--Speech_Bubble--inject-52"><g><g><path d="M428.15229,72.5743c-10.9182-8.0564-26.3002-5.7366-34.3565,5.1815-6.2197,8.4289-6.2309,19.5058-.9,27.8311l-1.9849,7.1071,7.7513-.8399c.1087,.083,.2047,.1766,.3153,.2582,10.9181,8.0564,26.2999,5.7364,34.3563-5.1816,8.0564-10.9183,5.7366-26.3002-5.1815-34.3564Z" style="fill:#2483DB;"></path><path d="M428.15229,72.5743c-10.9182-8.0564-26.3002-5.7366-34.3565,5.1815-6.2197,8.4289-6.2309,19.5058-.9,27.8311l-1.9849,7.1071,7.7513-.8399c.1087,.083,.2047,.1766,.3153,.2582,10.9181,8.0564,26.2999,5.7364,34.3563-5.1816,8.0564-10.9183,5.7366-26.3002-5.1815-34.3564Z" style="fill:#fff; opacity:.7;"></path><path d="M441.23145,91.69873h-.00781c-.1377-.00439-.24609-.11914-.24219-.25732,.2334-7.87012-3.82227-15.81836-10.33008-20.24951-.11426-.07764-.14355-.23291-.06641-.34717,.0791-.11475,.23438-.14355,.34766-.06592,6.64551,4.52441,10.78613,12.64111,10.54883,20.67725-.00391,.13574-.11523,.24268-.25,.24268Z" style="fill:#2483DB;"></path><path d="M440.41016,98.93848c-.03027,0-.06055-.00537-.08984-.0166-.12891-.0498-.19336-.19434-.14355-.32324,.42285-1.09961,.61914-2.30322,.56738-3.48047-.00586-.13818,.10059-.25488,.23926-.26074,.14062-.0249,.25488,.10059,.26074,.23828,.05469,1.24561-.15332,2.51904-.60059,3.68262-.03809,.09912-.13281,.16016-.2334,.16016Z" style="fill:#2483DB;"></path></g><path d="M411.97039,93.5495c.4135-.7027,1.0167-1.478,1.80861-2.3262,.58109-.6205,1.00739-1.1427,1.27989-1.5663,.2736-.4235,.4098-.9042,.4098-1.4429,0-.7643-.2596-1.3693-.779-1.814-.5193-.4448-1.2099-.6668-2.0719-.6668-.82779,0-1.5627,.2017-2.2045,.6051-.6427,.4023-1.18329,.9668-1.6234,1.6897l-3.1945-2.2017c.7395-1.3233,1.7377-2.3473,2.9965-3.071,1.2578-.7239,2.7496-1.0857,4.4744-1.0857,2.024,0,3.6474,.5073,4.8703,1.5202,1.2229,1.013,1.8343,2.4191,1.8343,4.2185,0,.848-.1188,1.5921-.3564,2.233-.23749,.6409-.5276,1.1842-.871,1.628-.3426,.4448-.7874,.9567-1.33249,1.536-.65111,.6823-1.12621,1.2561-1.42551,1.721-.2993,.4651-.4493,1.0287-.4493,1.6907h-3.9855c0-1.0755,.20631-1.9641,.6197-2.6676Zm-.4216,9.4013c-.4844-.4904-.7266-1.0872-.7266-1.7912,0-.703,.2375-1.2907,.7127-1.763,.4752-.4715,1.0829-.7081,1.8214-.7081,.7395,0,1.3463,.2366,1.8214,.7081,.4752,.4723,.7128,1.06,.7128,1.763,0,.704-.2413,1.3008-.7256,1.7912-.4844,.4904-1.0866,.7352-1.8086,.7352-.721,0-1.3241-.2448-1.8075-.7352Z" style="fill:#2483DB;"></path></g></g><g id="freepik--Door--inject-52"><g><g><g><path d="M200.59206,260.5896c-3.56003,2.04326-7.32875,3.76672-11.0832,5.41324-4.2933,1.88283-8.66418,3.58969-13.08927,5.13701-4.3863,1.53375-8.83564,3.04453-13.39109,3.99544-13.65231,2.8498-29.91983,1.54292-41.53188-6.79835-6.29182-4.5196-10.34473-11.27006-11.08323-19.00814-.09091-.95253-1.59181-.962-1.5,0,.66722,6.99128,3.77806,13.35591,9.01976,18.05659,5.30745,4.75964,12.10926,7.61845,19.01345,9.13462,7.36838,1.61811,15.03833,1.80625,22.4997,.75571,4.18948-.58987,8.2219-1.69938,12.24798-2.97937,4.9475-1.57292,9.83121-3.34838,14.6319-5.32471,5.10009-2.09958,10.23121-4.33666,15.02294-7.08685,.83706-.48042,.0824-1.77702-.75708-1.29521h0Z" style="fill:#2483DB;"></path><g><g><path d="M124.6624,247.7752c.505-.6148,.8852-1.3638,.9143-2.1588,.029-.795-.3461-1.6307-1.0453-2.0102,.372-1.3046-.0316-2.7539-.863-3.8258-.8314-1.0719-2.0462-1.7968-3.3257-2.2478-1.0893-.3839-2.2879-.5837-3.3993-.2692-1.3397,.3792-2.3672,1.4428-3.2329,2.5334-2.4739,3.1168-4.1914,6.8293-4.9665,10.7322,2.2965-.9521,4.9021-.461,7.3826-.2489,1.5384,.1314,3.1048,.1461,4.6077-.2081s2.9478-1.1038,3.9281-2.2968Z" style="fill:#2483DB;"></path><g style="opacity:.5;"><path d="M124.6624,247.7752c.505-.6148,.8852-1.3638,.9143-2.1588,.029-.795-.3461-1.6307-1.0453-2.0102,.372-1.3046-.0316-2.7539-.863-3.8258-.8314-1.0719-2.0462-1.7968-3.3257-2.2478-1.0893-.3839-2.2879-.5837-3.3993-.2692-1.3397,.3792-2.3672,1.4428-3.2329,2.5334-2.4739,3.1168-4.1914,6.8293-4.9665,10.7322,2.2965-.9521,4.9021-.461,7.3826-.2489,1.5384,.1314,3.1048,.1461,4.6077-.2081s2.9478-1.1038,3.9281-2.2968Z" style="fill:#fff;"></path></g><path d="M108.7356,250.568l.0084-.039c-.0142,.0059-.0287,.0103-.0429,.0164l.0345,.0226Z" style="fill:#2483DB;"></path></g><g style="opacity:.3;"><path d="M112.383,248.7194c-1.3623-.0702-2.7451,.4154-3.7644,1.322l.3333-.0136c1.1826-.2312,2.3736-.4633,3.5786-.4699,1.205-.0065,3.8649,.1099,4.8875,.7473-.9206-1.0066-3.6727-1.5155-5.035-1.5858Z"></path></g><path d="M122.2316,260.2206c.6902-.989,.9215-2.2238,1.0308-3.4249,.1026-1.1282,.0958-2.3326-.485-3.3051-.476-.7968-1.2798-1.3376-2.0921-1.7862-3.4252-1.8916-8.0382-2.4168-11.8978-1.7738,.3497,2.0259,1.1079,4.423,1.9984,6.2761,.7079,1.4731,1.5928,2.8852,2.7947,3.9926,1.202,1.1074,2.7477,1.8941,4.3801,1.9752,1.6324,.0812,3.3355-.6136,4.2709-1.9539Z" style="fill:#2483DB;"></path><g style="opacity:.5;"><path d="M122.2316,260.2206c.6902-.989,.9215-2.2238,1.0308-3.4249,.1026-1.1282,.0958-2.3326-.485-3.3051-.476-.7968-1.2798-1.3376-2.0921-1.7862-3.4252-1.8916-8.0382-2.4168-11.8978-1.7738,.3497,2.0259,1.1079,4.423,1.9984,6.2761,.7079,1.4731,1.5928,2.8852,2.7947,3.9926,1.202,1.1074,2.7477,1.8941,4.3801,1.9752,1.6324,.0812,3.3355-.6136,4.2709-1.9539Z" style="fill:#fff;"></path></g><path d="M107.9583,262.8607c.3439-.2735,.5104-.7081,.6497-1.1247,1.1326-3.3858,1.0686-8.2176,.578-11.7539-2.752-.452-5.4724,.9705-8.2202,1.4471-1.0103,.1753-2.0735,.3745-2.8537,1.04-.6785,.5788-1.0569,1.4582-1.1469,2.3456-.0902,.8873,.0869,1.7842,.3751,2.6282,.7515,2.2004,2.3519,4.1731,4.5104,5.0373,1.4023,.5613,2.9445,.636,4.4535,.7037,.5742,.0258,1.2043,.0344,1.6541-.3233Z" style="fill:#2483DB;"></path><g style="opacity:.5;"><path d="M107.9583,262.8607c.3439-.2735,.5104-.7081,.6497-1.1247,1.1326-3.3858,1.0686-8.2176,.578-11.7539-2.752-.452-5.4724,.9705-8.2202,1.4471-1.0103,.1753-2.0735,.3745-2.8537,1.04-.6785,.5788-1.0569,1.4582-1.1469,2.3456-.0902,.8873,.0869,1.7842,.3751,2.6282,.7515,2.2004,2.3519,4.1731,4.5104,5.0373,1.4023,.5613,2.9445,.636,4.4535,.7037,.5742,.0258,1.2043,.0344,1.6541-.3233Z" style="fill:#fff;"></path></g><path d="M105.8518,243.9527c-1.3312-2.0024-2.9744-3.8361-5.0141-5.1094-.9628-.6011-2.0573-1.0826-3.1908-1.0259-1.1336,.0567-2.2918,.7798-2.5536,1.8843-.1344,.5668-.0281,1.1665-.1349,1.7392-.1501,.8045-.6986,1.4679-1.0501,2.2071-.9303,1.9561-.2929,4.5279,1.4435,5.823,1.3863,1.0339,3.2128,1.2303,4.9416,1.2769,2.7816,.0748,6.0868-.144,8.8225-.6531-1.0344-2.1706-1.9329-4.1397-3.2641-6.1421Z" style="fill:#2483DB;"></path><g style="opacity:.5;"><path d="M105.8518,243.9527c-1.3312-2.0024-2.9744-3.8361-5.0141-5.1094-.9628-.6011-2.0573-1.0826-3.1908-1.0259-1.1336,.0567-2.2918,.7798-2.5536,1.8843-.1344,.5668-.0281,1.1665-.1349,1.7392-.1501,.8045-.6986,1.4679-1.0501,2.2071-.9303,1.9561-.2929,4.5279,1.4435,5.823,1.3863,1.0339,3.2128,1.2303,4.9416,1.2769,2.7816,.0748,6.0868-.144,8.8225-.6531-1.0344-2.1706-1.9329-4.1397-3.2641-6.1421Z" style="fill:#fff;"></path></g><path d="M112.755,240.202c.2189-1.3813,.3735-2.8041,.0718-4.1697s-1.1326-2.6814-2.4141-3.2416c-1.2814-.5601-3.0069-.1446-3.6465,1.0991-.8508-.5211-1.7273-1.0523-2.7093-1.2288-.982-.1766-2.1079,.0794-2.6986,.8836-.4007,.5455-.5017,1.2669-.4106,1.9376,.0911,.6708,.3568,1.3039,.6348,1.9211,2.062,4.5784,4.5828,8.3605,7.4238,12.5009,1.7499-2.9608,3.2103-6.3053,3.7487-9.7022Z" style="fill:#2483DB;"></path><g style="opacity:.5;"><path d="M112.755,240.202c.2189-1.3813,.3735-2.8041,.0718-4.1697s-1.1326-2.6814-2.4141-3.2416c-1.2814-.5601-3.0069-.1446-3.6465,1.0991-.8508-.5211-1.7273-1.0523-2.7093-1.2288-.982-.1766-2.1079,.0794-2.6986,.8836-.4007,.5455-.5017,1.2669-.4106,1.9376,.0911,.6708,.3568,1.3039,.6348,1.9211,2.062,4.5784,4.5828,8.3605,7.4238,12.5009,1.7499-2.9608,3.2103-6.3053,3.7487-9.7022Z" style="fill:#fff;"></path></g><g style="opacity:.3;"><path d="M112.5209,241.4278c-1.3109,.9691-2.5054,2.8302-3.0097,4.3804-.5044,1.5502-.8299,2.4844-.7045,4.1098,.8908-2.8212,2.2756-5.9051,3.7142-8.4902Z"></path></g><g style="opacity:.3;"><path d="M102.7804,250.8891c1.8593-.1645,3.7005-.5331,5.4798-1.0969-1.9274-.6979-3.8345-.1258-5.4798,1.0969Z"></path></g><g style="opacity:.3;"><path d="M103.199,240.6978c2.4326,2.1289,4.3904,4.8242,5.8429,7.7121-.7252-3.47-2.7355-6.006-5.8429-7.7121Z"></path></g><path d="M108.662,249.9436c-.4149-1.5264-.8296-3.1531-.362-4.6641,.0446-.1444,.0997-.2907,.2032-.4007,.1037-.11,.2668-.1761,.4096-.1266,.2025,.0703,.2695,.3185,.3027,.5304,.1015,.6486,.1648,1.3032,.1893,1.9592,.1443-.2291,.2954-.4653,.5215-.6142s.5499-.1857,.7576-.0119c.1696,.142,.2201,.3899,.1777,.607-.0423,.2171-.1628,.4102-.2886,.5922-.504,.729-1.1275,1.366-1.7478,1.9991" style="fill:#fff;"></path></g></g><g><path d="M137.855,275.5623c-2.3578,6.8669-8.871,11.7396-15.8884,13.6021-7.0175,1.8626-14.4835,1.089-21.5549-.5569,10.8394-8.4142,23.7214-13.062,37.4433-13.0452" style="fill:#2483DB;"></path><path d="M138.0612,275.6051l-27.3059,10.1468s17.5603-4.3692,27.3059-10.1468Z" style="opacity:.3;"></path></g></g><g><rect x="287.24439" y="59.3648" width="45.7934" height="401.7469" style="fill:#263238;"></rect><rect x="287.24439" y="59.3648" width="45.7934" height="401.7469" style="fill:#fff; opacity:.3;"></rect></g><g><path d="M225.09639,271.7073c-22.86744-2.48669-44.9836-10.96673-63.74336-24.26222-18.49195-13.10569-33.37033-30.96301-43.19966-51.36773-5.50916-11.43649-9.39161-23.63062-11.50687-36.14703-.16051-.94977-1.60625-.547-1.44642,.39876,3.81318,22.56326,13.42686,44.0176,27.57838,61.98783,14.31901,18.18292,33.31676,32.37065,54.67339,41.24198,12.01667,4.99161,24.70959,8.24181,37.64454,9.64841,.95837,.10422,.95099-1.39659,0-1.5h0Z" style="fill:#2483DB;"></path><path d="M125.2439,211.4511c-6.6235,5.8737-16.4608,7.137-25.027,4.9027-8.5661-2.2344-16.0265-7.5359-22.5444-13.5265,16.5545-2.4261,33.0168,.3713,47.5714,8.6238" style="fill:#2483DB;"></path><g><g><path d="M120.7272,148.507c.2764-.997,.3338-2.0879-.0507-3.0485-.3845-.9605-1.2708-1.7564-2.3022-1.8392-.2453-1.7471-1.489-3.2575-3.0424-4.0938-1.5534-.8362-3.3798-1.0579-5.1387-.9198-1.4975,.1177-3.0279,.5119-4.1834,1.4715-1.393,1.1569-2.0542,2.963-2.5086,4.7159-1.2988,5.0095-1.3841,10.3286-.2488,15.3775,2.2287-2.3423,5.5854-3.1316,8.6463-4.1868,1.8983-.6544,3.7685-1.4626,5.3687-2.6757,1.6002-1.2132,2.9231-2.866,3.4598-4.8011Z" style="fill:#2483DB;"></path><g style="opacity:.5;"><path d="M120.7272,148.507c.2764-.997,.3338-2.0879-.0507-3.0485-.3845-.9605-1.2708-1.7564-2.3022-1.8392-.2453-1.7471-1.489-3.2575-3.0424-4.0938-1.5534-.8362-3.3798-1.0579-5.1387-.9198-1.4975,.1177-3.0279,.5119-4.1834,1.4715-1.393,1.1569-2.0542,2.963-2.5086,4.7159-1.2988,5.0095-1.3841,10.3286-.2488,15.3775,2.2287-2.3423,5.5854-3.1316,8.6463-4.1868,1.8983-.6544,3.7685-1.4626,5.3687-2.6757,1.6002-1.2132,2.9231-2.866,3.4598-4.8011Z" style="fill:#fff;"></path></g><path d="M103.263,160.2214l-.0106-.0508c-.0138,.0145-.0287,.0274-.0424,.0421l.053,.0087Z" style="fill:#2483DB;"></path></g><g style="opacity:.3;"><path d="M106.6253,156.1013c-1.6567,.6344-3.0449,1.9406-3.7789,3.5557l.389-.1919c1.2843-.8981,2.578-1.8018,4.0072-2.4446,1.4292-.6429,4.6531-1.9063,6.2048-1.6874-1.625-.7116-5.1653,.1338-6.8221,.7682Z"></path></g><path d="M124.3962,164.5852c.2994-1.5398-.0764-3.1298-.5794-4.6154-.4726-1.3954-1.1155-2.8238-2.3186-3.6739-.9858-.6966-2.2265-.9159-3.4288-1.0212-5.0693-.4438-10.8306,1.3629-15.0806,4.1615,1.4835,2.2244,3.6483,4.6748,5.6836,6.4088,1.618,1.3783,3.4143,2.5908,5.427,3.2741,2.0128,.6831,4.2651,.8038,6.2487,.04,1.9835-.7638,3.6423-2.4875,4.0481-4.5739Z" style="fill:#2483DB;"></path><g style="opacity:.5;"><path d="M124.3962,164.5852c.2994-1.5398-.0764-3.1298-.5794-4.6154-.4726-1.3954-1.1155-2.8238-2.3186-3.6739-.9858-.6966-2.2265-.9159-3.4288-1.0212-5.0693-.4438-10.8306,1.3629-15.0806,4.1615,1.4835,2.2244,3.6483,4.6748,5.6836,6.4088,1.618,1.3783,3.4143,2.5908,5.427,3.2741,2.0128,.6831,4.2651,.8038,6.2487,.04,1.9835-.7638,3.6423-2.4875,4.0481-4.5739Z" style="fill:#fff;"></path></g><path d="M108.8174,175.2464c.2647-.5064,.2336-1.1108,.1796-1.6796-.4377-4.6224-3.0603-10.3334-5.5073-14.2794-3.5102,.913-5.995,4.038-9.0108,6.0529-1.1088,.7408-2.2679,1.538-2.8447,2.7404-.5017,1.0458-.4881,2.2908-.1275,3.3932,.3605,1.1025,1.0436,2.0755,1.8312,2.9271,2.0531,2.2202,4.9955,3.7222,8.0174,3.612,1.9631-.0716,3.836-.7957,5.6658-1.5105,.6963-.2719,1.45-.5937,1.7963-1.2561Z" style="fill:#2483DB;"></path><g style="opacity:.5;"><path d="M108.8174,175.2464c.2647-.5064,.2336-1.1108,.1796-1.6796-.4377-4.6224-3.0603-10.3334-5.5073-14.2794-3.5102,.913-5.995,4.038-9.0108,6.0529-1.1088,.7408-2.2679,1.538-2.8447,2.7404-.5017,1.0458-.4881,2.2908-.1275,3.3932,.3605,1.1025,1.0436,2.0755,1.8312,2.9271,2.0531,2.2202,4.9955,3.7222,8.0174,3.612,1.9631-.0716,3.836-.7957,5.6658-1.5105,.6963-.2719,1.45-.5937,1.7963-1.2561Z" style="fill:#fff;"></path></g><path d="M96.3479,153.876c-2.6381-1.6791-5.5582-2.9933-8.6544-3.4323-1.4615-.2072-3.0165-.2029-4.3343,.462-1.3179,.6648-2.3138,2.135-2.0431,3.5861,.139,.7447,.5815,1.4017,.7563,2.1388,.2455,1.0357-.057,2.1136-.0854,3.1776-.0752,2.8161,2.0382,5.5378,4.7852,6.1625,2.1931,.4988,4.4683-.2304,6.5482-1.0861,3.3466-1.3771,7.1611-3.3791,10.1454-5.4262-2.3739-2.0356-4.4798-3.9032-7.1179-5.5824Z" style="fill:#2483DB;"></path><g style="opacity:.5;"><path d="M96.3479,153.876c-2.6381-1.6791-5.5582-2.9933-8.6544-3.4323-1.4615-.2072-3.0165-.2029-4.3343,.462-1.3179,.6648-2.3138,2.135-2.0431,3.5861,.139,.7447,.5815,1.4017,.7563,2.1388,.2455,1.0357-.057,2.1136-.0854,3.1776-.0752,2.8161,2.0382,5.5378,4.7852,6.1625,2.1931,.4988,4.4683-.2304,6.5482-1.0861,3.3466-1.3771,7.1611-3.3791,10.1454-5.4262-2.3739-2.0356-4.4798-3.9032-7.1179-5.5824Z" style="fill:#fff;"></path></g><path d="M102.5787,145.7784c-.4678-1.7576-1.0338-3.5307-2.1123-4.9953-1.0783-1.4647-2.7596-2.5911-4.5785-2.5818-1.8188,.0094-3.6513,1.4128-3.7562,3.2286-1.2863-.1712-2.6083-.3409-3.8689-.0331-1.2606,.3075-2.4644,1.2052-2.7429,2.4727-.1888,.8597,.0712,1.7707,.5331,2.5201,.4617,.7495,1.1114,1.3623,1.7671,1.9495,4.8646,4.3568,9.855,7.525,15.4148,10.9504,.5202-4.4425,.4939-9.1886-.6562-13.5111Z" style="fill:#2483DB;"></path><g style="opacity:.5;"><path d="M102.5787,145.7784c-.4678-1.7576-1.0338-3.5307-2.1123-4.9953-1.0783-1.4647-2.7596-2.5911-4.5785-2.5818-1.8188,.0094-3.6513,1.4128-3.7562,3.2286-1.2863-.1712-2.6083-.3409-3.8689-.0331-1.2606,.3075-2.4644,1.2052-2.7429,2.4727-.1888,.8597,.0712,1.7707,.5331,2.5201,.4617,.7495,1.1114,1.3623,1.7671,1.9495,4.8646,4.3568,9.855,7.525,15.4148,10.9504,.5202-4.4425,.4939-9.1886-.6562-13.5111Z" style="fill:#fff;"></path></g><g style="opacity:.3;"><path d="M102.9464,147.3592c-1.0478,1.8431-1.4872,4.6853-1.2698,6.7943,.2172,2.109,.3225,3.3912,1.3283,5.2576-.4277-3.8237-.4065-8.2201-.0585-12.0519Z"></path></g><g style="opacity:.3;"><path d="M96.3518,163.7417c2.1239-1.1755,4.1187-2.5841,5.9371-4.1922-2.6594,.186-4.6254,1.8714-5.9371,4.1922Z"></path></g><g style="opacity:.3;"><path d="M91.4784,151.4041c4.0142,1.2492,7.7624,3.422,11.0114,6.09-2.691-3.7434-6.4177-5.6992-11.0114-6.09Z"></path></g><path d="M102.8464,159.5178c-1.2978-1.5961-2.6481-3.3116-2.8886-5.3546-.023-.1951-.0346-.3981,.0305-.5835,.0653-.1854,.2243-.35,.4202-.3664,.2779-.0231,.4883,.2366,.6394,.4711,.4626,.7176,.8828,1.4626,1.2577,2.2296,.0509-.3484,.106-.7088,.2964-1.005,.1904-.2962,.5559-.5107,.8944-.4135,.2765,.0795,.4672,.3476,.5312,.628,.0641,.2805,.0227,.5735-.031,.8563-.215,1.1323-.6206,2.2183-1.0244,3.2979" style="fill:#fff;"></path></g><path d="M124.4399,211.52l-31.1477-2.4179s19.0601,3.6538,31.1477,2.4179Z" style="opacity:.3;"></path></g><g><g><path d="M286.23939,387.8c25.27617-2.08699,49.90694-10.7555,70.9474-24.91668,20.67009-13.9119,37.53924-33.10642,48.88168-55.27907,6.30227-12.31993,10.89574-25.49353,13.55173-39.07598,.1844-.94299-1.26105-1.34673-1.44642-.39876-4.69321,24.00053-15.46765,46.72889-31.03661,65.58799-15.88113,19.23724-36.68713,34.12578-59.94271,43.12994-13.11613,5.07833-26.93621,8.29505-40.95508,9.45255-.95523,.07887-.96365,1.57957,0,1.5h0Z" style="fill:#2483DB;"></path><path d="M383.12589,338.268c7.0329,6.5688,17.6876,8.2177,27.05911,6.0301,9.37159-2.1876,17.62739-7.7393,24.87859-14.0664-17.92159-3.101-35.8897-.5232-51.9377,8.0363" style="fill:#2483DB;"></path><path d="M397.79129,321.03c-7.8952-3.4277-13.0455-11.58-14.5914-20.0472-1.5458-8.4672,.0656-17.2183,2.671-25.4216,8.9318,13.5958,13.2216,29.2537,11.9204,45.4688" style="fill:#2483DB;"></path><g><g><path d="M403.13579,255.283c-.2723-1.0912-.3041-2.2783,.1407-3.3114,.4448-1.033,1.4303-1.873,2.5534-1.934,.3156-1.8916,1.7095-3.4982,3.42111-4.3633,1.71159-.8651,3.70249-1.0548,5.61-.8554,1.624,.1699,3.276,.6413,4.50479,1.7166,1.4813,1.2962,2.1491,3.2775,2.5938,5.1951,1.2707,5.4802,1.2142,11.2629-.1613,16.7177-2.3562-2.6079-5.9817-3.56-9.27829-4.7925-2.04461-.7645-4.05431-1.6952-5.75921-3.0584-1.70479-1.3632-3.096-3.1965-3.625-5.3144Z" style="fill:#2483DB;"></path><g style="opacity:.5;"><path d="M403.13579,255.283c-.2723-1.0912-.3041-2.2783,.1407-3.3114,.4448-1.033,1.4303-1.873,2.5534-1.934,.3156-1.8916,1.7095-3.4982,3.42111-4.3633,1.71159-.8651,3.70249-1.0548,5.61-.8554,1.624,.1699,3.276,.6413,4.50479,1.7166,1.4813,1.2962,2.1491,3.2775,2.5938,5.1951,1.2707,5.4802,1.2142,11.2629-.1613,16.7177-2.3562-2.6079-5.9817-3.56-9.27829-4.7925-2.04461-.7645-4.05431-1.6952-5.75921-3.0584-1.70479-1.3632-3.096-3.1965-3.625-5.3144Z" style="fill:#fff;"></path></g><path d="M421.78539,268.5031l.0129-.0548c.0146,.0161,.0305,.0305,.0449,.0468l-.0578,.008Z" style="fill:#2483DB;"></path></g><g style="opacity:.3;"><path d="M418.24719,263.9315c1.7825,.7359,3.2544,2.1943,4.0067,3.97l-.4173-.2194c-1.3704-1.012-2.7509-2.0304-4.286-2.7691s-5.003-2.2021-6.6954-2.0077c1.7859-.7278,5.6094,.2903,7.392,1.0262Z"></path></g><path d="M398.69749,272.6521c-.2821-1.6817,.1709-3.3989,.7592-4.9993,.5527-1.503,1.2915-3.0373,2.6227-3.9273,1.0908-.7293,2.4453-.9328,3.7547-1.0135,5.5213-.34,11.7314,1.7851,16.2713,4.9455-1.6745,2.3757-4.0958,4.9778-6.3563,6.805-1.7969,1.4524-3.7829,2.7196-5.9894,3.4056-2.2064,.6859-4.6573,.7538-6.7915-.1319-2.1341-.8857-3.88819-2.8054-4.2707-5.0841Z" style="fill:#2483DB;"></path><g style="opacity:.5;"><path d="M398.69749,272.6521c-.2821-1.6817,.1709-3.3989,.7592-4.9993,.5527-1.503,1.2915-3.0373,2.6227-3.9273,1.0908-.7293,2.4453-.9328,3.7547-1.0135,5.5213-.34,11.7314,1.7851,16.2713,4.9455-1.6745,2.3757-4.0958,4.9778-6.3563,6.805-1.7969,1.4524-3.7829,2.7196-5.9894,3.4056-2.2064,.6859-4.6573,.7538-6.7915-.1319-2.1341-.8857-3.88819-2.8054-4.2707-5.0841Z" style="fill:#fff;"></path></g><path d="M415.32779,284.6749c-.2735-.5577-.2227-1.2137-.1482-1.8303,.6055-5.0108,3.6157-11.1434,6.3856-15.3627,3.7889,1.0906,6.4014,4.5562,9.6221,6.8304,1.1841,.8362,2.4214,1.7351,3.0144,3.0579,.5159,1.1505,.4662,2.5031,.0434,3.691-.4227,1.1879-1.1924,2.2261-2.07209,3.1294-2.29351,2.3551-5.53311,3.9047-8.81391,3.7001-2.1313-.1329-4.1463-.9722-6.1146-1.8004-.7491-.315-1.559-.6858-1.9167-1.4154Z" style="fill:#2483DB;"></path><g style="opacity:.5;"><path d="M415.32779,284.6749c-.2735-.5577-.2227-1.2137-.1482-1.8303,.6055-5.0108,3.6157-11.1434,6.3856-15.3627,3.7889,1.0906,6.4014,4.5562,9.6221,6.8304,1.1841,.8362,2.4214,1.7351,3.0144,3.0579,.5159,1.1505,.4662,2.5031,.0434,3.691-.4227,1.1879-1.1924,2.2261-2.07209,3.1294-2.29351,2.3551-5.53311,3.9047-8.81391,3.7001-2.1313-.1329-4.1463-.9722-6.1146-1.8004-.7491-.315-1.559-.6858-1.9167-1.4154Z" style="fill:#fff;"></path></g><path d="M429.47809,261.8018c2.91391-1.7507,6.1241-3.0969,9.501-3.487,1.594-.1842,3.2837-.1359,4.6972,.6236,1.4134,.7595,2.4544,2.385,2.1195,3.9544-.1719,.8053-.6712,1.5068-.8819,2.303-.2958,1.1186,.0026,2.2984,.0036,3.4555,.0026,3.0623-2.3703,5.9607-5.373,6.5625-2.3972,.4804-4.8492-.3758-7.08549-1.3642-3.598-1.5903-7.687-3.873-10.87261-6.1813,2.6368-2.1454,4.9778-4.1158,7.8917-5.8665Z" style="fill:#2483DB;"></path><g style="opacity:.5;"><path d="M429.47809,261.8018c2.91391-1.7507,6.1241-3.0969,9.501-3.487,1.594-.1842,3.2837-.1359,4.6972,.6236,1.4134,.7595,2.4544,2.385,2.1195,3.9544-.1719,.8053-.6712,1.5068-.8819,2.303-.2958,1.1186,.0026,2.2984,.0036,3.4555,.0026,3.0623-2.3703,5.9607-5.373,6.5625-2.3972,.4804-4.8492-.3758-7.08549-1.3642-3.598-1.5903-7.687-3.873-10.87261-6.1813,2.6368-2.1454,4.9778-4.1158,7.8917-5.8665Z" style="fill:#fff;"></path></g><path d="M422.93429,252.8272c.55771-1.8969,1.2226-3.8077,2.4356-5.3691s3.0717-2.7383,5.048-2.6771c1.9762,.0612,3.9282,1.6377,3.9913,3.6139,1.4025-.1499,2.8439-.2972,4.2052,.0726,1.3613,.3696,2.6442,1.3789,2.9112,2.7641,.1811,.9396-.127,1.9223-.65,2.7237-.5228,.8015-1.2459,1.4491-1.975,2.0689-5.40859,4.598-10.9205,7.9008-17.05859,11.467-.44051-4.8422-.27881-9.999,1.09229-14.664Z" style="fill:#2483DB;"></path><g style="opacity:.5;"><path d="M422.93429,252.8272c.55771-1.8969,1.2226-3.8077,2.4356-5.3691s3.0717-2.7383,5.048-2.6771c1.9762,.0612,3.9282,1.6377,3.9913,3.6139,1.4025-.1499,2.8439-.2972,4.2052,.0726,1.3613,.3696,2.6442,1.3789,2.9112,2.7641,.1811,.9396-.127,1.9223-.65,2.7237-.5228,.8015-1.2459,1.4491-1.975,2.0689-5.40859,4.598-10.9205,7.9008-17.05859,11.467-.44051-4.8422-.27881-9.999,1.09229-14.664Z" style="fill:#fff;"></path></g><g style="opacity:.3;"><path d="M422.49039,254.5348c1.087,2.0323,1.48461,5.1332,1.1892,7.4189-.2953,2.2858-.4457,3.6761-1.591,5.6761,.5721-4.1431,.67241-8.9213,.4018-13.095Z"></path></g><g style="opacity:.3;"><path d="M429.19689,272.5226c-2.275-1.337-4.4032-2.9237-6.3342-4.7222,2.8848,.2767,4.9739,2.1634,6.3342,4.7222Z"></path></g><g style="opacity:.3;"><path d="M434.83909,259.2522c-4.3973,1.2448-8.5314,3.5008-12.1369,6.3089,3.0293-3.9924,7.134-6.0131,12.1369-6.3089Z"></path></g><path d="M422.25779,267.7502c1.4551-1.698,2.9706-3.5243,3.2893-5.7377,.0305-.2114,.0488-.4316-.0168-.6349s-.2339-.3867-.44629-.41c-.30131-.0329-.53731,.2434-.70811,.494-.5228,.7668-1.0003,1.5646-1.4293,2.3876-.0455-.38-.0952-.7732-.2938-1.1005-.1986-.3272-.58979-.5705-.9603-.4744-.3028,.0786-.51749,.3646-.595,.6676-.07749,.303-.0407,.6225,.0097,.9313,.20181,1.2366,.6122,2.4281,1.0207,3.6126" style="fill:#fff;"></path></g><path d="M370.634,408.3287s-14.41921-37.5403-61.19391-25.2589c6.998,9.8983,15.4561,19.1459,26.2788,24.6064,0,0,13.3922,6.7484,34.91511,.6525Z" style="fill:#2483DB;"></path><path d="M386.28479,338.2877l26.3233-1.6649s-16.683,3.1217-26.3233,1.6649Z" style="opacity:.3;"></path><path d="M389.25489,296.5804l8.765,23.4859s-7.0403-13.89-8.765-23.4859Z" style="opacity:.3;"></path></g><g><path d="M389.06033,362.9761c-11.34784-6.47128-26.14665-5.83976-36.87068,1.6398-.78616,.54831-.03725,1.84922,.75708,1.29521,10.29485-7.18023,24.44341-7.86317,35.35652-1.6398,.83986,.47894,1.59645-.81654,.75708-1.29521h0Z" style="fill:#2483DB;"></path><g><g><path d="M399.99349,378.967c.57251,.2007,1.2084,.2769,1.7854,.0895,.5769-.1874,1.07711-.6748,1.1658-1.2749,1.0316-.0753,1.9638-.7438,2.5137-1.6199s.7509-1.9359,.7389-2.9702c-.0104-.8806-.1812-1.7913-.6974-2.5048-.6224-.8601-1.6531-1.3174-2.6608-1.6517-2.8798-.9555-5.98809-1.2132-8.98609-.7463,1.28319,1.3953,1.61389,3.3898,2.11149,5.2216,.3087,1.1361,.7084,2.2617,1.3556,3.2452s1.5624,1.822,2.6734,2.2115Z" style="fill:#2483DB;"></path><g style="opacity:.6;"><path d="M399.99349,378.967c.57251,.2007,1.2084,.2769,1.7854,.0895,.5769-.1874,1.07711-.6748,1.1658-1.2749,1.0316-.0753,1.9638-.7438,2.5137-1.6199s.7509-1.9359,.7389-2.9702c-.0104-.8806-.1812-1.7913-.6974-2.5048-.6224-.8601-1.6531-1.3174-2.6608-1.6517-2.8798-.9555-5.98809-1.2132-8.98609-.7463,1.28319,1.3953,1.61389,3.3898,2.11149,5.2216,.3087,1.1361,.7084,2.2617,1.3556,3.2452s1.5624,1.822,2.6734,2.2115Z" style="fill:#fff;"></path></g><path d="M393.823,368.2929l.03-.0042-.02291-.0264-.00709,.0306Z" style="fill:#2483DB;"></path></g><g style="opacity:.3;"><path d="M396.10179,370.4208c-.3064-.9939-1.0163-1.857-1.9324-2.3495l.097,.235c.4753,.7864,.9534,1.5785,1.27361,2.4397,.32019,.8612,.93339,2.7965,.74469,3.6957,.4798-.9228,.1235-3.0269-.1829-4.0209Z"></path></g><path d="M390.44459,380.4853c.889,.2353,1.8338,.0776,2.7226-.1587,.8347-.2219,1.6955-.5422,2.23981-1.2128,.446-.5495,.62269-1.2667,.73129-1.966,.45771-2.9481-.3742-6.389-1.84529-8.9846-1.35921,.7809-2.87731,1.9516-3.97111,3.0745-.8696,.8927-1.6491,1.8961-2.1274,3.0469s-.6368,2.4636-.26749,3.6539c.36929,1.1902,1.31289,2.2278,2.51759,2.5468Z" style="fill:#2483DB;"></path><g style="opacity:.6;"><path d="M390.44459,380.4853c.889,.2353,1.8338,.0776,2.7226-.1587,.8347-.2219,1.6955-.5422,2.23981-1.2128,.446-.5495,.62269-1.2667,.73129-1.966,.45771-2.9481-.3742-6.389-1.84529-8.9846-1.35921,.7809-2.87731,1.9516-3.97111,3.0745-.8696,.8927-1.6491,1.8961-2.1274,3.0469s-.6368,2.4636-.26749,3.6539c.36929,1.1902,1.31289,2.2278,2.51759,2.5468Z" style="fill:#fff;"></path></g><path d="M384.81639,370.9552c.2859,.1747,.6407,.1801,.97561,.1708,2.72109-.0755,6.16449-1.3866,8.56849-2.664-.397-2.0891-2.128-3.6647-3.1889-5.5077-.3901-.6775-.8112-1.3868-1.492-1.7712-.5922-.3343-1.321-.375-1.9801-.2071-.659,.1678-1.2549,.5294-1.7838,.9569-1.379,1.1143-2.3726,2.7769-2.4262,4.549-.0348,1.1512,.3156,2.2752,.6623,3.3735,.1318,.4179,.2906,.8714,.6646,1.0998Z" style="fill:#2483DB;"></path><g style="opacity:.6;"><path d="M384.81639,370.9552c.2859,.1747,.6407,.1801,.97561,.1708,2.72109-.0755,6.16449-1.3866,8.56849-2.664-.397-2.0891-2.128-3.6647-3.1889-5.5077-.3901-.6775-.8112-1.3868-1.492-1.7712-.5922-.3343-1.321-.375-1.9801-.2071-.659,.1678-1.2549,.5294-1.7838,.9569-1.379,1.1143-2.3726,2.7769-2.4262,4.549-.0348,1.1512,.3156,2.2752,.6623,3.3735,.1318,.4179,.2906,.8714,.6646,1.0998Z" style="fill:#fff;"></path></g><path d="M397.80509,364.4955c1.0853-1.4776,1.9682-3.1345,2.34591-4.9286,.17839-.8469,.23659-1.7568-.10091-2.5537-.3374-.7969-1.1585-1.4369-2.018-1.3352-.44109,.0522-.8427,.2854-1.2808,.3588-.6154,.1032-1.2341-.1159-1.8555-.1741-1.6444-.1539-3.3192,.976-3.792,2.5586-.3774,1.2635-.0397,2.6229,.3796,3.8731,.6749,2.0116,1.697,4.3212,2.778,6.147,1.2835-1.3092,2.4583-2.4682,3.5437-3.9459Z" style="fill:#2483DB;"></path><g style="opacity:.6;"><path d="M397.80509,364.4955c1.0853-1.4776,1.9682-3.1345,2.34591-4.9286,.17839-.8469,.23659-1.7568-.10091-2.5537-.3374-.7969-1.1585-1.4369-2.018-1.3352-.44109,.0522-.8427,.2854-1.2808,.3588-.6154,.1032-1.2341-.1159-1.8555-.1741-1.6444-.1539-3.3192,.976-3.792,2.5586-.3774,1.2635-.0397,2.6229,.3796,3.8731,.6749,2.0116,1.697,4.3212,2.778,6.147,1.2835-1.3092,2.4583-2.4682,3.5437-3.9459Z" style="fill:#fff;"></path></g><path d="M402.29869,368.4569c1.0465-.205,2.1058-.4669,3.0048-1.0405,.8989-.5737,1.6236-1.5132,1.6892-2.5776s-.6838-2.1912-1.742-2.3235c.1504-.7458,.30131-1.5125,.1705-2.262-.1306-.7495-.6087-1.4887-1.3393-1.7011-.4956-.1441-1.0387-.0276-1.4951,.2133-.4565,.2409-.8404,.597-1.2095,.9576-2.7388,2.6756-4.7871,5.4711-7.0081,8.5898,2.5785,.4779,5.356,.6479,7.9295,.144Z" style="fill:#2483DB;"></path><g style="opacity:.6;"><path d="M402.29869,368.4569c1.0465-.205,2.1058-.4669,3.0048-1.0405,.8989-.5737,1.6236-1.5132,1.6892-2.5776s-.6838-2.1912-1.742-2.3235c.1504-.7458,.30131-1.5125,.1705-2.262-.1306-.7495-.6087-1.4887-1.3393-1.7011-.4956-.1441-1.0387-.0276-1.4951,.2133-.4565,.2409-.8404,.597-1.2095,.9576-2.7388,2.6756-4.7871,5.4711-7.0081,8.5898,2.5785,.4779,5.356,.6479,7.9295,.144Z" style="fill:#fff;"></path></g><g style="opacity:.3;"><path d="M401.35959,368.6102c-1.0373-.685-2.6828-1.053-3.925-1.0083-1.2422,.0448-1.9964,.0563-3.1275,.5717,2.2535-.1008,4.8245,.0833,7.0525,.4366Z"></path></g><g style="opacity:.3;"><path d="M392.03359,364.1124c.6047,1.2884,1.3507,2.5104,2.22041,3.637-.00491-1.563-.914-2.779-2.22041-3.637Z"></path></g><g style="opacity:.3;"><path d="M399.44139,361.7435c-.8876,2.2995-2.3051,4.4072-3.9928,6.2036,2.295-1.4279,3.5847-3.5316,3.9928-6.2036Z"></path></g><path d="M394.25079,368.0767c.9844-.6968,2.0407-1.4197,3.2453-1.4806,.115-.0058,.2342-.0047,.3401,.0406,.1059,.0454,.196,.1449,.1979,.2602,.0027,.1634-.1575,.2764-.3005,.3556-.4379,.2426-.8901,.4593-1.3535,.6487,.2018,.0433,.4106,.0896,.5764,.2126,.1658,.1229,.277,.3452,.2069,.5393-.0573,.1587-.2215,.2598-.3881,.2863-.1666,.0266-.3364-.0092-.4997-.0516-.654-.17-1.2735-.4497-1.8892-.7281" style="fill:#fff;"></path></g></g></g><g><path d="M299.25269,154.6507c5.3564,2.7395,12.0441,1.8992,17.3011-1.0265,5.2569-2.9258,9.2651-7.6818,12.5361-12.7312-11.3053,1.2165-21.6624,5.8544-29.8372,13.7577" style="fill:#2483DB;"></path><path d="M236.83887,182.65681c3.75566-.55194,7.48118-1.42191,11.16285-2.33042,9.30154-2.2953,18.47818-5.2452,27.35242-8.85756,15.23491-6.20154,27.55245-17.92458,34.75121-32.69192,4.0834-8.37659,6.49002-17.45783,7.41874-26.7167,.09626-.95969-1.40441-.953-1.5,0-1.62039,16.15449-8.09466,31.87692-19.54908,43.54716-5.67778,5.78476-12.43809,10.42956-19.84986,13.70606-8.66106,3.82876-17.87444,6.69808-27.03472,9.06455-4.32897,1.11835-8.72129,2.18152-13.15032,2.83242-.95157,.13985-.54704,1.58542,.39876,1.44642h0Z" style="fill:#2483DB;"></path><g><g><path d="M301.11589,105.4011c-.4847-.7333-.8171-1.5998-.7582-2.4768,.0588-.877,.5664-1.7526,1.3781-2.0898-.25979-1.4761,.34921-3.0228,1.3853-4.1059,1.0361-1.083,2.4538-1.741,3.9113-2.0905,1.241-.2976,2.5811-.3802,3.7665,.0923,1.429,.5696,2.4368,1.8558,3.2636,3.1531,2.3629,3.7077,3.8264,7.9837,4.2327,12.3613-2.4151-1.3085-5.3346-1.0663-8.0847-1.1164-1.7057-.0312-3.4288-.1939-5.04-.7547-1.6111-.5608-3.11349-1.5496-4.0546-2.9726Z" style="fill:#2483DB;"></path><g style="opacity:.5;"><path d="M301.11589,105.4011c-.4847-.7333-.8171-1.5998-.7582-2.4768,.0588-.877,.5664-1.7526,1.3781-2.0898-.25979-1.4761,.34921-3.0228,1.3853-4.1059,1.0361-1.083,2.4538-1.741,3.9113-2.0905,1.241-.2976,2.5811-.3802,3.7665,.0923,1.429,.5696,2.4368,1.8558,3.2636,3.1531,2.3629,3.7077,3.8264,7.9837,4.2327,12.3613-2.4151-1.3085-5.3346-1.0663-8.0847-1.1164-1.7057-.0312-3.4288-.1939-5.04-.7547-1.6111-.5608-3.11349-1.5496-4.0546-2.9726Z" style="fill:#fff;"></path></g><path d="M318.29989,110.2886l-.0047-.0438c.0149,.0081,.0304,.0146,.0452,.0229l-.0405,.0209Z" style="fill:#2483DB;"></path></g><g style="opacity:.3;"><path d="M314.50269,107.8407c1.5051,.0783,2.96931,.7699,3.9859,1.8826l-.36459-.053c-1.27331-.3891-2.55571-.7802-3.87921-.925-1.3235-.1447-4.2599-.3204-5.4565,.2633,1.12671-1.0012,4.2092-1.2462,5.7144-1.1679Z"></path></g><path d="M302.36639,119.3556c-.6456-1.1657-.7588-2.5491-.7418-3.8816,.016-1.2514,.1611-2.5743,.91041-3.5767,.614-.8213,1.55909-1.3238,2.503-1.7241,3.98009-1.6878,9.10949-1.7382,13.27759-.591-.61559,2.1865-1.7225,4.7342-2.91259,6.669-.94611,1.538-2.07981,2.9888-3.52711,4.0687-1.4474,1.0797-3.23589,1.7677-5.0391,1.6706-1.8031-.0972-3.5954-1.0552-4.4704-2.6349Z" style="fill:#2483DB;"></path><g style="opacity:.5;"><path d="M302.36639,119.3556c-.6456-1.1657-.7588-2.5491-.7418-3.8816,.016-1.2514,.1611-2.5743,.91041-3.5767,.614-.8213,1.55909-1.3238,2.503-1.7241,3.98009-1.6878,9.10949-1.7382,13.27759-.591-.61559,2.1865-1.7225,4.7342-2.91259,6.669-.94611,1.538-2.07981,2.9888-3.52711,4.0687-1.4474,1.0797-3.23589,1.7677-5.0391,1.6706-1.8031-.0972-3.5954-1.0552-4.4704-2.6349Z" style="fill:#fff;"></path></g><path d="M317.75069,123.8865c-.34669-.3398-.48-.8364-.5855-1.3102-.85819-3.8501-.23619-9.1527,.7067-12.983,3.0759-.1825,5.90311,1.6913,8.8684,2.5288,1.0903,.308,2.236,.6483,3.0173,1.4687,.6796,.7136,.995,1.7232,.9927,2.7087-.00229,.9854-.2992,1.9508-.7124,2.8454-1.077,2.3324-3.061,4.3176-5.5318,5.0208-1.6052,.4569-3.3085,.3628-4.9745,.2649-.634-.0372-1.3274-.0996-1.7809-.5441Z" style="fill:#2483DB;"></path><g style="opacity:.5;"><path d="M317.75069,123.8865c-.34669-.3398-.48-.8364-.5855-1.3102-.85819-3.8501-.23619-9.1527,.7067-12.983,3.0759-.1825,5.90311,1.6913,8.8684,2.5288,1.0903,.308,2.236,.6483,3.0173,1.4687,.6796,.7136,.995,1.7232,.9927,2.7087-.00229,.9854-.2992,1.9508-.7124,2.8454-1.077,2.3324-3.061,4.3176-5.5318,5.0208-1.6052,.4569-3.3085,.3628-4.9745,.2649-.634-.0372-1.3274-.0996-1.7809-.5441Z" style="fill:#fff;"></path></g><path d="M322.22439,103.348c1.6915-2.0486,3.7067-3.8762,6.09361-5.0426,1.12669-.5506,2.38439-.9549,3.62369-.7631,1.2392,.1917,2.4295,1.1186,2.5912,2.3622,.0829,.6382-.1024,1.2852-.0504,1.9267,.0731,.9013,.6002,1.693,.9021,2.5454,.799,2.2559-.1951,5.0094-2.2512,6.2345-1.6415,.978-3.6712,.9853-5.57639,.839-3.06541-.2353-6.67271-.8531-9.621-1.7249,1.38459-2.2673,2.59679-4.3287,4.28839-6.3772Z" style="fill:#2483DB;"></path><g style="opacity:.5;"><path d="M322.22439,103.348c1.6915-2.0486,3.7067-3.8762,6.09361-5.0426,1.12669-.5506,2.38439-.9549,3.62369-.7631,1.2392,.1917,2.4295,1.1186,2.5912,2.3622,.0829,.6382-.1024,1.2852-.0504,1.9267,.0731,.9013,.6002,1.693,.9021,2.5454,.799,2.2559-.1951,5.0094-2.2512,6.2345-1.6415,.978-3.6712,.9853-5.57639,.839-3.06541-.2353-6.67271-.8531-9.621-1.7249,1.38459-2.2673,2.59679-4.3287,4.28839-6.3772Z" style="fill:#fff;"></path></g><path d="M315.06619,98.4379c-.0828-1.5429-.09019-3.1241,.3973-4.5904,.4874-1.4664,1.5507-2.8175,3.023-3.2868,1.4722-.4693,3.321,.1844,3.8818,1.6242,.9946-.4755,2.0184-.9593,3.1178-1.0411,1.0993-.0819,2.3074,.3279,2.8647,1.2791,.378,.6452,.4068,1.4496,.23,2.1763-.1766,.7267-.5409,1.3922-.9169,2.0386-2.7887,4.7961-5.9908,8.6647-9.5856,12.8904-1.5851-3.4536-2.8082-7.2958-3.0121-11.0903Z" style="fill:#2483DB;"></path><g style="opacity:.5;"><path d="M315.06619,98.4379c-.0828-1.5429-.09019-3.1241,.3973-4.5904,.4874-1.4664,1.5507-2.8175,3.023-3.2868,1.4722-.4693,3.321,.1844,3.8818,1.6242,.9946-.4755,2.0184-.9593,3.1178-1.0411,1.0993-.0819,2.3074,.3279,2.8647,1.2791,.378,.6452,.4068,1.4496,.23,2.1763-.1766,.7267-.5409,1.3922-.9169,2.0386-2.7887,4.7961-5.9908,8.6647-9.5856,12.8904-1.5851-3.4536-2.8082-7.2958-3.0121-11.0903Z" style="fill:#fff;"></path></g><g style="opacity:.3;"><path d="M315.18359,99.8118c1.3299,1.2147,2.4301,3.3962,2.80741,5.1575,.37739,1.7612,.62839,2.8249,.305,4.5968-.65681-3.202-1.82661-6.7491-3.11241-9.7543Z"></path></g><g style="opacity:.3;"><path d="M324.80779,111.3214c-2.0246-.3931-4.00579-1.0083-5.8969-1.8311,2.1978-.5469,4.2284,.2995,5.8969,1.8311Z"></path></g><g style="opacity:.3;"><path d="M325.51129,100.0738c-2.9164,2.0618-5.3756,4.8004-7.3016,7.8082,1.1932-3.7305,3.6919-6.288,7.3016-7.8082Z"></path></g><path d="M318.45209,109.6108c.6303-1.63,1.2717-3.3703,.9304-5.0843-.0326-.1637-.0764-.3308-.1777-.4635-.1013-.1328-.273-.224-.4356-.1859-.2306,.0541-.3325,.3192-.39319,.5483-.18561,.7012-.32991,1.4133-.43181,2.1315-.1324-.2682-.2714-.5451-.5029-.7345-.2315-.1895-.5832-.2669-.8312-.0996-.2026,.1367-.2864,.4033-.2646,.6467,.0217,.2435,.132,.4694,.24951,.6838,.47059,.8587,1.08319,1.6299,1.69249,2.3965" style="fill:#fff;"></path></g><path d="M299.92369,154.2836l21.0281-9.7138s-11.3687,8.3897-21.0281,9.7138Z" style="opacity:.3;"></path></g><g><path d="M299.73909,334.6872c5.3564,2.7396,12.0441,1.8993,17.3011-1.0264,5.2569-2.9258,9.2651-7.6818,12.5361-12.7312-11.30529,1.2165-21.66229,5.8544-29.8372,13.7576" style="fill:#2483DB;"></path><path d="M237.32527,362.69341c3.75566-.55194,7.48118-1.42191,11.16285-2.33042,9.30154-2.2953,18.47818-5.2452,27.35242-8.85756,15.23491-6.20154,27.55245-17.92458,34.75121-32.69192,4.0834-8.37659,6.49002-17.45783,7.41874-26.7167,.09626-.95969-1.40441-.953-1.5,0-1.62039,16.15449-8.09466,31.87692-19.54908,43.54716-5.67778,5.78476-12.43809,10.42956-19.84986,13.70606-8.66106,3.82876-17.87444,6.69808-27.03472,9.06455-4.32897,1.11835-8.72129,2.18152-13.15032,2.83242-.95157,.13985-.54704,1.58542,.39876,1.44642h0Z" style="fill:#2483DB;"></path><g><g><path d="M301.60239,285.4377c-.4848-.7333-.8172-1.5998-.7583-2.4768,.0588-.877,.5664-1.7526,1.3782-2.0898-.2599-1.4762,.3491-3.0228,1.3852-4.1059,1.0361-1.083,2.4539-1.741,3.9114-2.0905,1.2409-.2976,2.581-.3802,3.7664,.0923,1.429,.5696,2.4368,1.8558,3.2636,3.1531,2.3629,3.7077,3.8264,7.9836,4.2327,12.3613-2.4151-1.3085-5.33459-1.0663-8.0847-1.1164-1.7056-.0312-3.4288-.1939-5.04-.7547-1.6111-.5608-3.1135-1.5496-4.0545-2.9726Z" style="fill:#2483DB;"></path><g style="opacity:.5;"><path d="M301.60239,285.4377c-.4848-.7333-.8172-1.5998-.7583-2.4768,.0588-.877,.5664-1.7526,1.3782-2.0898-.2599-1.4762,.3491-3.0228,1.3852-4.1059,1.0361-1.083,2.4539-1.741,3.9114-2.0905,1.2409-.2976,2.581-.3802,3.7664,.0923,1.429,.5696,2.4368,1.8558,3.2636,3.1531,2.3629,3.7077,3.8264,7.9836,4.2327,12.3613-2.4151-1.3085-5.33459-1.0663-8.0847-1.1164-1.7056-.0312-3.4288-.1939-5.04-.7547-1.6111-.5608-3.1135-1.5496-4.0545-2.9726Z" style="fill:#fff;"></path></g><path d="M318.78629,290.3252l-.0047-.0438c.0149,.0081,.03041,.0146,.0452,.0229l-.0405,.0209Z" style="fill:#2483DB;"></path></g><g style="opacity:.3;"><path d="M314.98909,287.8773c1.5051,.0783,2.9693,.7699,3.98591,1.8826l-.36461-.0531c-1.2733-.389-2.5557-.7801-3.8792-.9249-1.3234-.1447-4.2599-.3204-5.4564,.2633,1.1266-1.0012,4.2091-1.2462,5.7143-1.1679Z"></path></g><path d="M302.85289,299.3922c-.6457-1.1657-.75889-2.5491-.74189-3.8816,.01609-1.2514,.16109-2.5743,.91039-3.5767,.614-.8213,1.5591-1.3239,2.5031-1.7241,3.9801-1.6878,9.1094-1.7382,13.2776-.591-.6156,2.1865-1.7225,4.7342-2.9127,6.669-.9461,1.538-2.0798,2.9888-3.5271,4.0687-1.4474,1.0797-3.2358,1.7677-5.039,1.6706-1.8032-.0972-3.5955-1.0552-4.4704-2.6349Z" style="fill:#2483DB;"></path><g style="opacity:.5;"><path d="M302.85289,299.3922c-.6457-1.1657-.75889-2.5491-.74189-3.8816,.01609-1.2514,.16109-2.5743,.91039-3.5767,.614-.8213,1.5591-1.3239,2.5031-1.7241,3.9801-1.6878,9.1094-1.7382,13.2776-.591-.6156,2.1865-1.7225,4.7342-2.9127,6.669-.9461,1.538-2.0798,2.9888-3.5271,4.0687-1.4474,1.0797-3.2358,1.7677-5.039,1.6706-1.8032-.0972-3.5955-1.0552-4.4704-2.6349Z" style="fill:#fff;"></path></g><path d="M318.23719,303.9231c-.3467-.3398-.4801-.8364-.5856-1.3102-.8582-3.8501-.2362-9.1527,.7067-12.983,3.0759-.1825,5.9031,1.6913,8.8685,2.5288,1.09021,.308,2.2359,.6483,3.01721,1.4687,.67959,.7136,.99509,1.7232,.99269,2.7086-.0022,.9855-.2992,1.9509-.7123,2.8455-1.0771,2.3324-3.061,4.3176-5.5319,5.0208-1.6051,.4568-3.30849,.3628-4.97449,.2649-.634-.0372-1.32741-.0996-1.78081-.5441Z" style="fill:#2483DB;"></path><g style="opacity:.5;"><path d="M318.23719,303.9231c-.3467-.3398-.4801-.8364-.5856-1.3102-.8582-3.8501-.2362-9.1527,.7067-12.983,3.0759-.1825,5.9031,1.6913,8.8685,2.5288,1.09021,.308,2.2359,.6483,3.01721,1.4687,.67959,.7136,.99509,1.7232,.99269,2.7086-.0022,.9855-.2992,1.9509-.7123,2.8455-1.0771,2.3324-3.061,4.3176-5.5319,5.0208-1.6051,.4568-3.30849,.3628-4.97449,.2649-.634-.0372-1.32741-.0996-1.78081-.5441Z" style="fill:#fff;"></path></g><path d="M322.71079,283.3846c1.6915-2.0486,3.7067-3.8762,6.0936-5.0426,1.1267-.5507,2.3845-.9549,3.6237-.7631,1.2393,.1917,2.4295,1.1186,2.5912,2.3622,.0829,.6382-.1024,1.2852-.0504,1.9267,.0732,.9013,.6002,1.693,.90211,2.5454,.799,2.2559-.19511,5.0094-2.25121,6.2345-1.6415,.978-3.6712,.9853-5.5763,.839-3.06549-.2354-6.6728-.8531-9.6211-1.7249,1.3847-2.2673,2.5968-4.3287,4.2884-6.3772Z" style="fill:#2483DB;"></path><g style="opacity:.5;"><path d="M322.71079,283.3846c1.6915-2.0486,3.7067-3.8762,6.0936-5.0426,1.1267-.5507,2.3845-.9549,3.6237-.7631,1.2393,.1917,2.4295,1.1186,2.5912,2.3622,.0829,.6382-.1024,1.2852-.0504,1.9267,.0732,.9013,.6002,1.693,.90211,2.5454,.799,2.2559-.19511,5.0094-2.25121,6.2345-1.6415,.978-3.6712,.9853-5.5763,.839-3.06549-.2354-6.6728-.8531-9.6211-1.7249,1.3847-2.2673,2.5968-4.3287,4.2884-6.3772Z" style="fill:#fff;"></path></g><path d="M315.55269,278.4745c-.0829-1.543-.0903-3.1241,.3972-4.5905,.4874-1.4663,1.5507-2.8174,3.023-3.2867,1.4722-.4693,3.321,.1844,3.8819,1.6242,.9945-.4755,2.0183-.9593,3.1177-1.0411,1.0993-.082,2.3074,.3278,2.8647,1.2791,.3781,.6452,.40681,1.4496,.2301,2.1762-.1767,.7268-.541,1.3923-.917,2.0387-2.7887,4.7961-5.9908,8.6647-9.5856,12.8904-1.5851-3.4536-2.8082-7.2958-3.012-11.0903Z" style="fill:#2483DB;"></path><g style="opacity:.5;"><path d="M315.55269,278.4745c-.0829-1.543-.0903-3.1241,.3972-4.5905,.4874-1.4663,1.5507-2.8174,3.023-3.2867,1.4722-.4693,3.321,.1844,3.8819,1.6242,.9945-.4755,2.0183-.9593,3.1177-1.0411,1.0993-.082,2.3074,.3278,2.8647,1.2791,.3781,.6452,.40681,1.4496,.2301,2.1762-.1767,.7268-.541,1.3923-.917,2.0387-2.7887,4.7961-5.9908,8.6647-9.5856,12.8904-1.5851-3.4536-2.8082-7.2958-3.012-11.0903Z" style="fill:#fff;"></path></g><g style="opacity:.3;"><path d="M315.67,279.8484c1.33,1.2147,2.43019,3.3962,2.80749,5.1575,.3773,1.7612,.6284,2.8249,.3049,4.5968-.6568-3.202-1.8266-6.7491-3.11239-9.7543Z"></path></g><g style="opacity:.3;"><path d="M325.29419,291.358c-2.0245-.3931-4.0058-1.0084-5.8969-1.8311,2.1978-.5469,4.2284,.2995,5.8969,1.8311Z"></path></g><g style="opacity:.3;"><path d="M325.99769,280.1104c-2.9164,2.0618-5.3756,4.8004-7.3016,7.8082,1.1932-3.7306,3.69191-6.2881,7.3016-7.8082Z"></path></g><path d="M318.93849,289.6474c.6303-1.63,1.2717-3.3703,.9304-5.0843-.0326-.1637-.0764-.3308-.1776-.4635-.1014-.1328-.2731-.2241-.4356-.1859-.2306,.0541-.3326,.3192-.3933,.5483-.1856,.7011-.3299,1.4133-.4317,2.1315-.1325-.2682-.2715-.5451-.503-.7345-.2315-.1895-.5832-.2669-.8311-.0996-.2027,.1367-.2865,.4033-.2647,.6467,.0217,.2435,.132,.4694,.2495,.6838,.4707,.8587,1.0832,1.6299,1.6925,2.3965" style="fill:#fff;"></path></g></g><g><g><path d="M427.19179,308.13c-.3542-.4141-.6247-.9219-.6554-1.466-.0306-.544,.2149-1.1214,.68861-1.3907-.27241-.8884-.01561-1.8864,.53919-2.6317,.5549-.7453,1.377-1.2582,2.2471-1.5844,.7408-.2776,1.5589-.4307,2.3242-.2303,.9226,.2415,1.6407,.956,2.2483,1.6911,1.7364,2.1009,2.9628,4.62,3.5465,7.2824-1.5856-.6209-3.36329-.2494-5.0591-.0706-1.0517,.1109-2.1243,.1421-3.1583-.08-1.034-.2222-2.0337-.716-2.7211-1.5198Z" style="fill:#2483DB;"></path><g style="opacity:.6;"><path d="M427.19179,308.13c-.3542-.4141-.6247-.9219-.6554-1.466-.0306-.544,.2149-1.1214,.68861-1.3907-.27241-.8884-.01561-1.8864,.53919-2.6317,.5549-.7453,1.377-1.2582,2.2471-1.5844,.7408-.2776,1.5589-.4307,2.3242-.2303,.9226,.2415,1.6407,.956,2.2483,1.6911,1.7364,2.1009,2.9628,4.62,3.5465,7.2824-1.5856-.6209-3.36329-.2494-5.0591-.0706-1.0517,.1109-2.1243,.1421-3.1583-.08-1.034-.2222-2.0337-.716-2.7211-1.5198Z" style="fill:#fff;"></path></g><path d="M438.13649,309.8269l-.0062-.0265,.0296,.0106-.0234,.0159Z" style="fill:#2483DB;"></path></g><g style="opacity:.3;"><path d="M435.61369,308.6104c.932-.0666,1.8855,.2473,2.5958,.8544l-.2284-.0049c-.813-.1423-1.6318-.2851-2.457-.2733-.8253,.0118-2.6453,.1276-3.337,.578,.6168-.7019,2.4946-1.0876,3.4266-1.1542Z"></path></g><path d="M429.025,316.62c-.48611-.668-.66121-1.5105-.75231-2.3315-.0856-.7712-.0972-1.5961,.2874-2.27,.3151-.5521,.8583-.9333,1.4085-1.2515,2.32-1.3418,5.4719-1.7639,8.1238-1.3759-.2121,1.3921-.6989,3.044-1.2836,4.3251-.46479,1.0183-1.0516,1.9974-1.85979,2.772-.80811,.7747-1.856,1.3343-2.97281,1.412-1.1168,.0777-2.2925-.3751-2.95119-1.2802Z" style="fill:#2483DB;"></path><g style="opacity:.6;"><path d="M429.025,316.62c-.48611-.668-.66121-1.5105-.75231-2.3315-.0856-.7712-.0972-1.5961,.2874-2.27,.3151-.5521,.8583-.9333,1.4085-1.2515,2.32-1.3418,5.4719-1.7639,8.1238-1.3759-.2121,1.3921-.6989,3.044-1.2836,4.3251-.46479,1.0183-1.0516,1.9974-1.85979,2.772-.80811,.7747-1.856,1.3343-2.97281,1.412-1.1168,.0777-2.2925-.3751-2.95119-1.2802Z" style="fill:#fff;"></path></g><path d="M438.83529,318.2347c-.2392-.1827-.3591-.478-.4601-.7615-.8215-2.3032-.8431-5.613-.555-8.0414,1.8785-.3468,3.7607,.5905,5.6489,.8797,.6943,.1063,1.4251,.2284,1.9683,.6736,.4725,.3871,.74361,.9843,.8173,1.5907,.0737,.6064-.0354,1.223-.2214,1.8049-.4848,1.5171-1.554,2.8897-3.0205,3.5107-.95279,.4035-2.0079,.4755-3.0403,.5422-.3929,.0255-.8243,.04-1.1372-.1989Z" style="fill:#2483DB;"></path><g style="opacity:.6;"><path d="M438.83529,318.2347c-.2392-.1827-.3591-.478-.4601-.7615-.8215-2.3032-.8431-5.613-.555-8.0414,1.8785-.3468,3.7607,.5905,5.6489,.8797,.6943,.1063,1.4251,.2284,1.9683,.6736,.4725,.3871,.74361,.9843,.8173,1.5907,.0737,.6064-.0354,1.223-.2214,1.8049-.4848,1.5171-1.554,2.8897-3.0205,3.5107-.95279,.4035-2.0079,.4755-3.0403,.5422-.3929,.0255-.8243,.04-1.1372-.1989Z" style="fill:#fff;"></path></g><path d="M440.02179,305.2576c.8846-1.3893,1.985-2.6673,3.3646-3.5669,.6512-.4247,1.3942-.7693,2.1713-.7458,.777,.0235,1.58,.503,1.7742,1.2558,.0997,.3864,.035,.7985,.1159,1.1892,.1137,.5489,.4983,.9959,.7491,1.4973,.6636,1.327,.2618,3.0968-.9097,4.0072-.9354,.7269-2.1836,.8861-3.3668,.9414-1.9039,.0889-4.1703-.0162-6.0507-.3277,.679-1.5005,1.2676-2.8612,2.1521-4.2505Z" style="fill:#2483DB;"></path><g style="opacity:.6;"><path d="M440.02179,305.2576c.8846-1.3893,1.985-2.6673,3.3646-3.5669,.6512-.4247,1.3942-.7693,2.1713-.7458,.777,.0235,1.58,.503,1.7742,1.2558,.0997,.3864,.035,.7985,.1159,1.1892,.1137,.5489,.4983,.9959,.7491,1.4973,.6636,1.327,.2618,3.0968-.9097,4.0072-.9354,.7269-2.1836,.8861-3.3668,.9414-1.9039,.0889-4.1703-.0162-6.0507-.3277,.679-1.5005,1.2676-2.8612,2.1521-4.2505Z" style="fill:#fff;"></path></g><path d="M435.24359,302.7825c-.16859-.9429-.2937-1.9152-.10559-2.8545,.18809-.9392,.73929-1.8516,1.60929-2.2525,.87-.401,2.0573-.1398,2.5121,.7033,.57561-.3684,1.16861-.7441,1.8387-.8782,.6701-.1343,1.4446,.0257,1.86,.5685,.2818,.3681,.3608,.8608,.3075,1.3214-.0533,.4605-.2267,.8977-.4087,1.3241-1.3501,3.1634-3.0252,5.7875-4.9147,8.6614-1.2385-2.0039-2.2839-4.2745-2.6986-6.5935Z" style="fill:#2483DB;"></path><g style="opacity:.6;"><path d="M435.24359,302.7825c-.16859-.9429-.2937-1.9152-.10559-2.8545,.18809-.9392,.73929-1.8516,1.60929-2.2525,.87-.401,2.0573-.1398,2.5121,.7033,.57561-.3684,1.16861-.7441,1.8387-.8782,.6701-.1343,1.4446,.0257,1.86,.5685,.2818,.3681,.3608,.8608,.3075,1.3214-.0533,.4605-.2267,.8977-.4087,1.3241-1.3501,3.1634-3.0252,5.7875-4.9147,8.6614-1.2385-2.0039-2.2839-4.2745-2.6986-6.5935Z" style="fill:#fff;"></path></g><g style="opacity:.3;"><path d="M435.42049,303.6188c.9109,.6459,1.7541,1.9042,2.12051,2.959,.36639,1.0548,.602,1.6901,.53809,2.8049-.6483-1.9199-1.6384-4.013-2.6586-5.7639Z"></path></g><g style="opacity:.3;"><path d="M442.21909,309.9662c-1.2755-.0875-2.5413-.315-3.7675-.677,1.3105-.504,2.6242-.1381,3.7675,.677Z"></path></g><g style="opacity:.3;"><path d="M441.79439,302.9927c-1.637,1.4908-2.9412,3.3631-3.8968,5.3605,.4496-2.3861,1.7919-4.1501,3.8968-5.3605Z"></path></g><path d="M438.17849,309.3983c.26351-1.0509,.5254-2.1705,.1848-3.199-.0326-.0982-.0722-.1976-.1447-.2716-.0724-.0739-.185-.117-.2821-.0811-.1378,.0509-.1803,.2217-.2001,.3673-.0608,.4455-.0953,.8947-.1032,1.3443-.1019-.155-.2085-.3147-.3654-.4136s-.3791-.1197-.519,.0021c-.1142,.0996-.1454,.27-.1135,.4181s.117,.2787,.20571,.4017c.355,.4924,.79059,.9201,1.224,1.3453" style="fill:#fff;"></path></g><g><g><path d="M400.52179,216.0889c-.3542-.4142-.6247-.9219-.6554-1.466-.0306-.5441,.2149-1.1214,.68861-1.3908-.27241-.8884-.01561-1.8863,.53929-2.6317,.5548-.7453,1.3769-1.2582,2.247-1.5843,.7408-.2777,1.5589-.4307,2.3242-.2304,.9226,.2415,1.6407,.956,2.2483,1.6911,1.7364,2.101,2.9628,4.6201,3.5465,7.2824-1.5856-.6209-3.36329-.2493-5.0591-.0705-1.0517,.1108-2.1243,.1421-3.1583-.0801s-2.0336-.716-2.7211-1.5197Z" style="fill:#2483DB;"></path><g style="opacity:.6;"><path d="M400.52179,216.0889c-.3542-.4142-.6247-.9219-.6554-1.466-.0306-.5441,.2149-1.1214,.68861-1.3908-.27241-.8884-.01561-1.8863,.53929-2.6317,.5548-.7453,1.3769-1.2582,2.247-1.5843,.7408-.2777,1.5589-.4307,2.3242-.2304,.9226,.2415,1.6407,.956,2.2483,1.6911,1.7364,2.101,2.9628,4.6201,3.5465,7.2824-1.5856-.6209-3.36329-.2493-5.0591-.0705-1.0517,.1108-2.1243,.1421-3.1583-.0801s-2.0336-.716-2.7211-1.5197Z" style="fill:#fff;"></path></g><path d="M411.46659,217.7858l-.0063-.0266,.0296,.0106-.0233,.016Z" style="fill:#2483DB;"></path></g><g style="opacity:.3;"><path d="M408.94369,216.5693c.932-.0666,1.8856,.2473,2.5958,.8543l-.2283-.0048c-.8131-.1423-1.6319-.2852-2.4571-.2733-.8253,.0118-2.6453,.1276-3.337,.5779,.6168-.7018,2.4946-1.0876,3.4266-1.1541Z"></path></g><path d="M402.355,224.5789c-.48611-.668-.66121-1.5105-.75231-2.3316-.0856-.7711-.0972-1.5961,.2874-2.2699,.3151-.5521,.8583-.9333,1.4085-1.2516,2.32-1.3418,5.4719-1.7639,8.1238-1.3758-.2121,1.3921-.6988,3.0439-1.2836,4.325-.46479,1.0184-1.0516,1.9974-1.85979,2.7721-.80811,.7746-1.856,1.3343-2.97281,1.412-1.1167,.0776-2.2925-.3751-2.95119-1.2802Z" style="fill:#2483DB;"></path><g style="opacity:.6;"><path d="M402.355,224.5789c-.48611-.668-.66121-1.5105-.75231-2.3316-.0856-.7711-.0972-1.5961,.2874-2.2699,.3151-.5521,.8583-.9333,1.4085-1.2516,2.32-1.3418,5.4719-1.7639,8.1238-1.3758-.2121,1.3921-.6988,3.0439-1.2836,4.325-.46479,1.0184-1.0516,1.9974-1.85979,2.7721-.80811,.7746-1.856,1.3343-2.97281,1.412-1.1167,.0776-2.2925-.3751-2.95119-1.2802Z" style="fill:#fff;"></path></g><path d="M412.16539,226.1935c-.2392-.1826-.3592-.478-.4602-.7614-.8215-2.3033-.8431-5.6131-.555-8.0414,1.8785-.3469,3.76081,.5904,5.649,.8796,.6942,.1064,1.425,.2284,1.9683,.6736,.47251,.3872,.74351,.9843,.8172,1.5908,.0737,.6064-.0354,1.223-.2213,1.8049-.4849,1.5171-1.5541,2.8897-3.0206,3.5107-.9527,.4034-2.0079,.4754-3.0403,.5422-.3929,.0254-.8243,.0399-1.1371-.199Z" style="fill:#2483DB;"></path><g style="opacity:.6;"><path d="M412.16539,226.1935c-.2392-.1826-.3592-.478-.4602-.7614-.8215-2.3033-.8431-5.6131-.555-8.0414,1.8785-.3469,3.76081,.5904,5.649,.8796,.6942,.1064,1.425,.2284,1.9683,.6736,.47251,.3872,.74351,.9843,.8172,1.5908,.0737,.6064-.0354,1.223-.2213,1.8049-.4849,1.5171-1.5541,2.8897-3.0206,3.5107-.9527,.4034-2.0079,.4754-3.0403,.5422-.3929,.0254-.8243,.0399-1.1371-.199Z" style="fill:#fff;"></path></g><path d="M413.35189,213.2165c.8845-1.3893,1.985-2.6673,3.3645-3.567,.6512-.4246,1.3942-.7692,2.1713-.7457,.777,.0235,1.58,.503,1.7742,1.2558,.0997,.3863,.035,.7985,.1159,1.1892,.1138,.5489,.4984,.9958,.7491,1.4972,.6636,1.327,.2618,3.0969-.9097,4.0073-.9353,.7268-2.1835,.8861-3.3668,.9414-1.9039,.0888-4.1703-.0162-6.0507-.3278,.679-1.5005,1.2676-2.8611,2.1522-4.2504Z" style="fill:#2483DB;"></path><g style="opacity:.6;"><path d="M413.35189,213.2165c.8845-1.3893,1.985-2.6673,3.3645-3.567,.6512-.4246,1.3942-.7692,2.1713-.7457,.777,.0235,1.58,.503,1.7742,1.2558,.0997,.3863,.035,.7985,.1159,1.1892,.1138,.5489,.4984,.9958,.7491,1.4972,.6636,1.327,.2618,3.0969-.9097,4.0073-.9353,.7268-2.1835,.8861-3.3668,.9414-1.9039,.0888-4.1703-.0162-6.0507-.3278,.679-1.5005,1.2676-2.8611,2.1522-4.2504Z" style="fill:#fff;"></path></g><path d="M408.57359,210.7414c-.16859-.943-.2937-1.9152-.10559-2.8545,.18809-.9393,.73929-1.8516,1.60929-2.2526,.87-.4009,2.0573-.1398,2.5121,.7033,.57561-.3684,1.16861-.744,1.8388-.8782,.6701-.1342,1.4445,.0258,1.86,.5685,.2817,.3682,.3607,.8609,.3074,1.3214-.0533,.4606-.2267,.8978-.4087,1.3242-1.3501,3.1633-3.0252,5.7875-4.9147,8.6613-1.2385-2.0039-2.2839-4.2745-2.6986-6.5934Z" style="fill:#2483DB;"></path><g style="opacity:.6;"><path d="M408.57359,210.7414c-.16859-.943-.2937-1.9152-.10559-2.8545,.18809-.9393,.73929-1.8516,1.60929-2.2526,.87-.4009,2.0573-.1398,2.5121,.7033,.57561-.3684,1.16861-.744,1.8388-.8782,.6701-.1342,1.4445,.0258,1.86,.5685,.2817,.3682,.3607,.8609,.3074,1.3214-.0533,.4606-.2267,.8978-.4087,1.3242-1.3501,3.1633-3.0252,5.7875-4.9147,8.6613-1.2385-2.0039-2.2839-4.2745-2.6986-6.5934Z" style="fill:#fff;"></path></g><g style="opacity:.3;"><path d="M408.75059,211.5777c.9108,.6459,1.754,1.9042,2.12041,2.959,.36639,1.0548,.602,1.6901,.53809,2.8049-.6483-1.9199-1.6384-4.0131-2.6585-5.7639Z"></path></g><g style="opacity:.3;"><path d="M415.54909,217.925c-1.2755-.0874-2.5413-.3149-3.7675-.6769,1.3105-.5041,2.6243-.1381,3.7675,.6769Z"></path></g><g style="opacity:.3;"><path d="M415.12449,210.9515c-1.6371,1.4909-2.9413,3.3632-3.8969,5.3605,.4496-2.3861,1.792-4.15,3.8969-5.3605Z"></path></g><path d="M411.50849,217.3572c.26351-1.0509,.5254-2.1705,.1848-3.199-.0325-.0982-.0722-.1977-.1446-.2716-.0725-.074-.1851-.117-.2822-.0812-.1377,.0509-.1803,.2218-.2001,.3673-.0608,.4456-.0952,.8947-.1032,1.3443-.1019-.1549-.2085-.3146-.3654-.4135s-.3791-.1198-.5189,.0021c-.1143,.0995-.1455,.2699-.1136,.418,.032,.1482,.1171,.2787,.20571,.4017,.355,.4924,.79059,.9202,1.224,1.3454" style="fill:#fff;"></path></g><g><rect x="134.6293" y="59.3648" width="170.2577" height="401.3733" style="fill:#2483DB;"></rect><rect x="134.6293" y="59.3648" width="170.2577" height="401.3733" style="opacity:.2;"></rect><rect x="298.34869" y="59.3648" width="6.53831" height="401.3733" style="opacity:.3;"></rect><path d="M287.49414,448.90918H147.59082V75.16211h139.90332V448.90918Zm-139.40332-.5h138.90332V75.66211H148.09082V448.40918Z" style="fill:#263238;"></path><rect x="153.00732" y="55.22559" width="40.89404" height=".75" style="fill:#2483DB;"></rect><rect x="197.19629" y="55.22559" width="2.39844" height=".75" style="fill:#2483DB;"></rect><path d="M207.76221,241.28418h-49.05371V90.38525h49.05371V241.28418Zm-48.55371-.5h48.05371V90.88525h-48.05371V240.78418Z" style="opacity:.3;"></path><path d="M269.95312,241.28418h-49.05371V90.38525h49.05371V241.28418Zm-48.55371-.5h48.05371V90.88525h-48.05371V240.78418Z" style="opacity:.3;"></path><path d="M207.76221,439.27051h-49.05371v-145.93457h49.05371v145.93457Zm-48.55371-.5h48.05371v-144.93457h-48.05371v144.93457Z" style="opacity:.3;"></path><path d="M269.95312,440.47266h-49.05371v-145.93457h49.05371v145.93457Zm-48.55371-.5h48.05371v-144.93457h-48.05371v144.93457Z" style="opacity:.3;"></path><path d="M270.03418,286.00977h-111.32568v-35.1709h111.32568v35.1709Zm-110.82568-.5h110.32568v-34.1709h-110.32568v34.1709Z" style="opacity:.3;"></path><rect x="276.26409" y="241.0342" width="8.1005" height="27.3899" style="fill:#263238;"></rect><rect x="256.823" y="243.5157" width="25.92149" height="5.0917" rx="2.3199" ry="2.3199" style="fill:#263238;"></rect></g><g><path d="M128.44221,214.07682c-3.76778-9.03209-5.55587-19.01284-3.56996-28.70351,1.48318-7.23746,5.00167-14.11104,10.45015-19.16019,7.14009-6.61676,16.8161-9.41227,24.76934-14.82117,6.97633-4.74452,12.42088-11.55521,15.77289-19.27919,3.77269-8.69334,4.93364-18.42228,2.93447-27.71093-.20301-.94323-1.64934-.54407-1.44642,.39876,3.68341,17.11408-3.91024,35.98133-18.53947,45.64494-7.92496,5.23498-17.3629,8.10781-24.44925,14.61226-5.29309,4.85844-8.88509,11.44348-10.59406,18.38713-2.55723,10.39017-.84769,21.26551,3.22589,31.03067,.36623,.87792,1.81826,.49261,1.44642-.39876h0Z" style="fill:#2483DB;"></path><g><g><path d="M197.487,103.4921c.60169-.6678,1.06969-1.4935,1.14349-2.3893,.0739-.8959-.3062-1.8585-1.0758-2.323,.4873-1.4532,.1067-3.1099-.7763-4.3627s-2.2166-2.1338-3.6374-2.709c-1.2096-.4896-2.5522-.7771-3.8228-.4795-1.5317,.3587-2.7465,1.506-3.7799,2.6922-2.9534,3.3899-5.0838,7.4914-6.1605,11.8565,2.6412-.9559,5.5567-.2669,8.3454,.1007,1.7296,.2279,3.4969,.3254,5.2115,.0034,1.7145-.3221,3.3842-1.0935,4.5523-2.3893Z" style="fill:#2483DB;"></path><g style="opacity:.5;"><path d="M197.487,103.4921c.60169-.6678,1.06969-1.4935,1.14349-2.3893,.0739-.8959-.3062-1.8585-1.0758-2.323,.4873-1.4532,.1067-3.1099-.7763-4.3627s-2.2166-2.1338-3.6374-2.709c-1.2096-.4896-2.5522-.7771-3.8228-.4795-1.5317,.3587-2.7465,1.506-3.7799,2.6922-2.9534,3.3899-5.0838,7.4914-6.1605,11.8565,2.6412-.9559,5.5567-.2669,8.3454,.1007,1.7296,.2279,3.4969,.3254,5.2115,.0034,1.7145-.3221,3.3842-1.0935,4.5523-2.3893Z" style="fill:#fff;"></path></g><path d="M179.3663,105.8208l.0115-.0435c-.0164,.0059-.033,.0101-.0493,.0162l.0378,.0273Z" style="fill:#2483DB;"></path></g><g style="opacity:.3;"><path d="M183.5786,103.923c-1.5339-.1497-3.1198,.3269-4.3171,1.2975l.3768,.0018c1.3468-.1998,2.7031-.4002,4.0635-.3453,1.3603,.0549,4.3565,.3239,5.4778,1.0962-.987-1.1838-4.067-1.9004-5.601-2.0502Z"></path></g><path d="M194.0999,117.4134c.8302-1.0807,1.1551-2.4624,1.3406-3.8124,.1741-1.268,.2287-2.6278-.3766-3.7555-.496-.9239-1.3753-1.5759-2.269-2.1242-3.7681-2.3121-8.9475-3.1434-13.3371-2.6172,.29,2.3047,1.0219,5.0494,1.9311,7.1871,.7228,1.6992,1.6485,3.3387,2.9479,4.6508,1.2995,1.3121,3.0033,2.2799,4.8416,2.4559,1.8382,.176,3.7964-.5202,4.9215-1.9845Z" style="fill:#2483DB;"></path><g style="opacity:.5;"><path d="M194.0999,117.4134c.8302-1.0807,1.1551-2.4624,1.3406-3.8124,.1741-1.268,.2287-2.6278-.3766-3.7555-.496-.9239-1.3753-1.5759-2.269-2.1242-3.7681-2.3121-8.9475-3.1434-13.3371-2.6172,.29,2.3047,1.0219,5.0494,1.9311,7.1871,.7228,1.6992,1.6485,3.3387,2.9479,4.6508,1.2995,1.3121,3.0033,2.2799,4.8416,2.4559,1.8382,.176,3.7964-.5202,4.9215-1.9845Z" style="fill:#fff;"></path></g><path d="M177.8534,119.6552c.4022-.2909,.6126-.7728,.7914-1.2359,1.4534-3.7628,1.631-9.2197,1.2601-13.2365-3.0827-.6524-6.2268,.8124-9.3528,1.2083-1.1494,.1456-2.3597,.3155-3.2746,1.0263-.7958,.6182-1.2684,1.5913-1.4159,2.5881-.1476,.9969,.0059,2.0183,.2876,2.9858,.7344,2.5225,2.4387,4.8318,4.8303,5.9187,1.5538,.7062,3.2906,.8701,4.9902,1.0245,.6468,.0589,1.3575,.1012,1.8837-.2793Z" style="fill:#2483DB;"></path><g style="opacity:.5;"><path d="M177.8534,119.6552c.4022-.2909,.6126-.7728,.7914-1.2359,1.4534-3.7628,1.631-9.2197,1.2601-13.2365-3.0827-.6524-6.2268,.8124-9.3528,1.2083-1.1494,.1456-2.3597,.3155-3.2746,1.0263-.7958,.6182-1.2684,1.5913-1.4159,2.5881-.1476,.9969,.0059,2.0183,.2876,2.9858,.7344,2.5225,2.4387,4.8318,4.8303,5.9187,1.5538,.7062,3.2906,.8701,4.9902,1.0245,.6468,.0589,1.3575,.1012,1.8837-.2793Z" style="fill:#fff;"></path></g><path d="M176.4534,98.2052c-1.399-2.3289-3.1588-4.4835-5.3951-6.0262-1.0557-.7282-2.2661-1.3283-3.5484-1.3228-1.2824,.0053-2.627,.7616-2.9797,1.9946-.1809,.6328-.0919,1.3152-.2421,1.9561-.211,.9002-.8644,1.6207-1.2994,2.4368-1.1511,2.1597-.5646,5.0954,1.3283,6.647,1.5111,1.2387,3.5626,1.5548,5.5114,1.6967,3.1357,.2282,6.8775,.1522,9.9916-.281-1.0553-2.5034-1.9676-4.7723-3.3666-7.1012Z" style="fill:#2483DB;"></path><g style="opacity:.5;"><path d="M176.4534,98.2052c-1.399-2.3289-3.1588-4.4835-5.3951-6.0262-1.0557-.7282-2.2661-1.3283-3.5484-1.3228-1.2824,.0053-2.627,.7616-2.9797,1.9946-.1809,.6328-.0919,1.3152-.2421,1.9561-.211,.9002-.8644,1.6207-1.2994,2.4368-1.1511,2.1597-.5646,5.0954,1.3283,6.647,1.5111,1.2387,3.5626,1.5548,5.5114,1.6967,3.1357,.2282,6.8775,.1522,9.9916-.281-1.0553-2.5034-1.9676-4.7723-3.3666-7.1012Z" style="fill:#fff;"></path></g><path d="M184.4389,94.3287c.3184-1.5477,.5665-3.1456,.2965-4.7025-.2698-1.557-1.1396-3.085-2.5571-3.7835-1.4173-.6985-3.3864-.3187-4.1725,1.052-.9334-.6322-1.8951-1.2771-2.9945-1.5271-1.0992-.25-2.3832-.0194-3.0915,.8577-.4804,.5951-.6318,1.4041-.5636,2.1658,.0681,.7618,.3353,1.4902,.6171,2.2011,2.0906,5.2742,4.7403,9.6734,7.7328,14.4934,2.1282-3.2513,3.9495-6.9507,4.7328-10.7569Z" style="fill:#2483DB;"></path><g style="opacity:.5;"><path d="M184.4389,94.3287c.3184-1.5477,.5665-3.1456,.2965-4.7025-.2698-1.557-1.1396-3.085-2.5571-3.7835-1.4173-.6985-3.3864-.3187-4.1725,1.052-.9334-.6322-1.8951-1.2771-2.9945-1.5271-1.0992-.25-2.3832-.0194-3.0915,.8577-.4804,.5951-.6318,1.4041-.5636,2.1658,.0681,.7618,.3353,1.4902,.6171,2.2011,2.0906,5.2742,4.7403,9.6734,7.7328,14.4934,2.1282-3.2513,3.9495-6.9507,4.7328-10.7569Z" style="fill:#fff;"></path></g><g style="opacity:.3;"><path d="M184.1113,95.7002c-1.5297,1.026-2.9741,3.0648-3.6235,4.7884-.6495,1.7237-1.0652,2.7612-1.0077,4.6022,1.1513-3.1381,2.8738-6.5472,4.6312-9.3906Z"></path></g><g style="opacity:.3;"><path d="M172.6282,105.8754c2.1071-.0896,4.2042-.4104,6.2417-.9548-2.1394-.8874-4.3215-.3402-6.2417,.9548Z"></path></g><g style="opacity:.3;"><path d="M173.6276,94.3942c2.6355,2.5286,4.7058,5.672,6.196,9.0066-.6392-3.9539-2.777-6.9203-6.196-9.0066Z"></path></g><path d="M179.3155,105.1123c-.3894-1.7443-.7733-3.6017-.1675-5.2831,.0579-.1606,.1276-.3229,.2502-.4417s.3101-.185,.4687-.1217c.225,.0898,.2878,.3734,.3143,.6143,.081,.7373,.1186,1.4794,.1124,2.2211,.1747-.2511,.3574-.5099,.6203-.6662,.263-.1564,.6304-.1812,.8557,.0257,.1841,.169,.2283,.4514,.1692,.6943-.0589,.2429-.2049,.4545-.3563,.6535-.6065,.7967-1.3433,1.4835-2.0761,2.1659" style="fill:#fff;"></path></g><g><g><path d="M111.6246,95.9228c-.4413-.5161-.7785-1.149-.8167-1.827s.2678-1.3976,.8582-1.7333c-.3395-1.1071-.0195-2.3508,.672-3.2797,.6915-.9288,1.716-1.568,2.8004-1.9745,.9232-.3461,1.9428-.5368,2.8966-.2871,1.1498,.301,2.0447,1.1914,2.8019,2.1075,2.164,2.6183,3.6924,5.7578,4.4199,9.0758-1.9761-.7738-4.1916-.3108-6.305-.0879-1.3107,.1381-2.6474,.1771-3.936-.0998s-2.5345-.8923-3.3913-1.894Z" style="fill:#2483DB;"></path><g style="opacity:.6;"><path d="M111.6246,95.9228c-.4413-.5161-.7785-1.149-.8167-1.827s.2678-1.3976,.8582-1.7333c-.3395-1.1071-.0195-2.3508,.672-3.2797,.6915-.9288,1.716-1.568,2.8004-1.9745,.9232-.3461,1.9428-.5368,2.8966-.2871,1.1498,.301,2.0447,1.1914,2.8019,2.1075,2.164,2.6183,3.6924,5.7578,4.4199,9.0758-1.9761-.7738-4.1916-.3108-6.305-.0879-1.3107,.1381-2.6474,.1771-3.936-.0998s-2.5345-.8923-3.3913-1.894Z" style="fill:#fff;"></path></g><path d="M125.2646,98.0376l-.0077-.0331c.0122,.0047,.0247,.0083,.0368,.0132l-.0291,.0199Z" style="fill:#2483DB;"></path></g><g style="opacity:.3;"><path d="M122.1206,96.5215c1.1614-.083,2.3498,.3082,3.235,1.0647l-.2846-.006c-1.0133-.1773-2.0337-.3554-3.0622-.3406-1.0285,.0147-3.2967,.159-4.1587,.7203,.7687-.8747,3.109-1.3554,4.2705-1.4384Z"></path></g><path d="M113.9093,106.5035c-.6058-.8325-.824-1.8824-.9376-2.9057-.1066-.9611-.1211-1.9891,.3582-2.8289,.3928-.6881,1.0696-1.1632,1.7554-1.5598,2.8913-1.6722,6.8194-2.1982,10.1243-1.7147-.2643,1.735-.8709,3.7936-1.5996,5.3902-.5793,1.2691-1.3107,2.4892-2.3178,3.4547-1.0072,.9654-2.3131,1.6629-3.7049,1.7597s-2.857-.4675-3.678-1.5955Z" style="fill:#2483DB;"></path><g style="opacity:.6;"><path d="M113.9093,106.5035c-.6058-.8325-.824-1.8824-.9376-2.9057-.1066-.9611-.1211-1.9891,.3582-2.8289,.3928-.6881,1.0696-1.1632,1.7554-1.5598,2.8913-1.6722,6.8194-2.1982,10.1243-1.7147-.2643,1.735-.8709,3.7936-1.5996,5.3902-.5793,1.2691-1.3107,2.4892-2.3178,3.4547-1.0072,.9654-2.3131,1.6629-3.7049,1.7597s-2.857-.4675-3.678-1.5955Z" style="fill:#fff;"></path></g><path d="M126.1355,108.5158c-.2981-.2276-.4475-.5957-.5734-.949-1.0238-2.8704-1.0507-6.9953-.6917-10.0217,2.3411-.4322,4.6869,.736,7.0401,1.0964,.8651,.1325,1.7759,.2846,2.453,.8394,.5888,.4826,.9266,1.2267,1.0184,1.9825,.0919,.7558-.044,1.5242-.2758,2.2494-.6042,1.8907-1.9368,3.6013-3.7644,4.3752-1.1874,.5028-2.5023,.5925-3.789,.6758-.4896,.0317-1.0272,.0497-1.4172-.248Z" style="fill:#2483DB;"></path><g style="opacity:.6;"><path d="M126.1355,108.5158c-.2981-.2276-.4475-.5957-.5734-.949-1.0238-2.8704-1.0507-6.9953-.6917-10.0217,2.3411-.4322,4.6869,.736,7.0401,1.0964,.8651,.1325,1.7759,.2846,2.453,.8394,.5888,.4826,.9266,1.2267,1.0184,1.9825,.0919,.7558-.044,1.5242-.2758,2.2494-.6042,1.8907-1.9368,3.6013-3.7644,4.3752-1.1874,.5028-2.5023,.5925-3.789,.6758-.4896,.0317-1.0272,.0497-1.4172-.248Z" style="fill:#fff;"></path></g><path d="M127.6142,92.3431c1.1024-1.7315,2.4738-3.3242,4.1931-4.4454,.8116-.5292,1.7376-.9587,2.706-.9294s1.9691,.6269,2.2112,1.5651c.1242,.4814,.0436,.9951,.1444,1.482,.1417,.6841,.621,1.2411,.9335,1.866,.827,1.6538,.3264,3.8594-1.1337,4.9941-1.1657,.9058-2.7212,1.1042-4.1959,1.1731-2.3727,.1108-5.1973-.0201-7.5407-.4084,.8462-1.87,1.5798-3.5657,2.6821-5.2971Z" style="fill:#2483DB;"></path><g style="opacity:.6;"><path d="M127.6142,92.3431c1.1024-1.7315,2.4738-3.3242,4.1931-4.4454,.8116-.5292,1.7376-.9587,2.706-.9294s1.9691,.6269,2.2112,1.5651c.1242,.4814,.0436,.9951,.1444,1.482,.1417,.6841,.621,1.2411,.9335,1.866,.827,1.6538,.3264,3.8594-1.1337,4.9941-1.1657,.9058-2.7212,1.1042-4.1959,1.1731-2.3727,.1108-5.1973-.0201-7.5407-.4084,.8462-1.87,1.5798-3.5657,2.6821-5.2971Z" style="fill:#fff;"></path></g><path d="M121.6593,89.2585c-.2101-1.1752-.366-2.3869-.1316-3.5575s.9214-2.3075,2.0056-2.8073c1.0842-.4997,2.5639-.1742,3.1307,.8765,.7174-.4591,1.4564-.9273,2.2916-1.0944,.8351-.1673,1.8003,.0321,2.318,.7085,.3512,.4588,.4496,1.0728,.3831,1.6468-.0664,.5739-.2825,1.1188-.5093,1.6502-1.6825,3.9423-3.7701,7.2127-6.1249,10.7943-1.5435-2.4974-2.8463-5.3271-3.3632-8.2171Z" style="fill:#2483DB;"></path><g style="opacity:.6;"><path d="M121.6593,89.2585c-.2101-1.1752-.366-2.3869-.1316-3.5575s.9214-2.3075,2.0056-2.8073c1.0842-.4997,2.5639-.1742,3.1307,.8765,.7174-.4591,1.4564-.9273,2.2916-1.0944,.8351-.1673,1.8003,.0321,2.318,.7085,.3512,.4588,.4496,1.0728,.3831,1.6468-.0664,.5739-.2825,1.1188-.5093,1.6502-1.6825,3.9423-3.7701,7.2127-6.1249,10.7943-1.5435-2.4974-2.8463-5.3271-3.3632-8.2171Z" style="fill:#fff;"></path></g><g style="opacity:.3;"><path d="M121.8798,90.3007c1.1352,.805,2.186,2.3731,2.6426,3.6877,.4567,1.3145,.7503,2.1063,.6706,3.4956-.8078-2.3927-2.0418-5.0013-3.3132-7.1833Z"></path></g><g style="opacity:.3;"><path d="M130.3526,98.2111c-1.5896-.109-3.1672-.3925-4.6953-.8436,1.6332-.6282,3.2705-.1721,4.6953,.8436Z"></path></g><g style="opacity:.3;"><path d="M129.8233,89.5203c-2.0401,1.858-3.6655,4.1914-4.8565,6.6806,.5604-2.9737,2.2333-5.172,4.8565-6.6806Z"></path></g><path d="M125.3169,97.5034c.3284-1.3097,.6548-2.705,.2303-3.9867-.0405-.1224-.09-.2464-.1802-.3385-.0903-.0922-.2306-.1459-.3517-.1012-.1716,.0635-.2246,.2764-.2494,.4578-.0757,.5552-.1186,1.115-.1285,1.6753-.127-.1931-.2599-.3921-.4555-.5154-.1955-.1232-.4724-.1492-.6467,.0026-.1423,.1241-.1813,.3365-.1415,.5211s.1459,.3473,.2563,.5006c.4425,.6136,.9854,1.1467,1.5254,1.6766" style="fill:#fff;"></path></g><g><path d="M162.5211,147.9206c5.8868,5.0968,14.552,6.1051,22.0626,4.0505,7.5107-2.0547,14.0167-6.7953,19.6867-12.1322-14.5852-1.9608-29.0347,.6715-41.7493,8.0817" style="fill:#2483DB;"></path><path d="M164.6727,147.5325l30.7874-5.3063s-18.6373,5.4118-30.7874,5.3063Z" style="opacity:.3;"></path></g><g><path d="M152.0638,154.9904c-5.373-3.9088-7.8841-10.9164-7.6266-17.5557,.2576-6.6393,2.9416-12.9622,6.2827-18.7054,4.4459,11.7441,5.048,24.2623,1.3439,36.2611" style="fill:#2483DB;"></path><path d="M151.9709,153.1272l-1.5341-26.6141s-.8996,16.5356,1.5341,26.6141Z" style="opacity:.3;"></path></g></g></g></g><g id="freepik--Character--inject-52"><g><g><path d="M362.28919,155.7855c-1.1446,5.7232-3.7544,17.1696,.2061,21.0041,0,0-1.5911,5.7232-12.1675,5.7232-11.6181,0-5.5171-5.7232-5.5171-5.7232,6.3527-1.511,6.2269-6.2154,5.1394-10.6336l12.3391-10.3705Z" style="fill:#b97964;"></path><path d="M338.345,145.2868c.14079-.0013,.27539-.0572,.37589-.1556,.1978-.2017,.1978-.5244,0-.7261-1.1854-1.1478-2.8464-1.663-4.4735-1.3875-.2721,.0623-.4423,.3334-.3801,.6058l.0042,.0165c.0571,.2734,.3251,.4488,.5986,.3915l.0108-.0025c1.2912-.2277,2.6125,.1884,3.5399,1.1152,.0843,.0895,.2013,.1411,.32421,.1427Z" style="fill:#263238;"></path><path d="M336.763,151.9128c-.309,2.1301-.91111,4.2071-1.78931,6.1721,1.0292,.4243,2.1939,.3673,3.1768-.1555l-1.38749-6.0166Z" style="fill:#a24e3f;"></path><path d="M337.20379,150.2661c.1946,.8557-.1037,1.6597-.6612,1.7894-.55759,.1297-1.1671-.4538-1.2967-1.2967-.1296-.8428,.0909-1.6468,.6484-1.7895,.5575-.1426,1.1021,.441,1.3095,1.2968Z" style="fill:#263238;"></path><path d="M336.07579,148.9434l-2.1784-.1038s1.4134,1.3615,2.1784,.1038Z" style="fill:#263238;"></path><path d="M365.17339,140.541c1.7764,10.6458,2.749,15.1063-1.2968,21.7452-6.0944,9.9716-19.5279,9.9067-24.4294,0-4.4218-8.8821-6.57419-24.7925,2.71-31.3927,6.5384-4.7317,15.6746-3.2673,20.4063,3.2709,1.3657,1.8872,2.26051,4.0734,2.6099,6.3766Z" style="fill:#b97964;"></path><path d="M374.93569,144.8475c-.388,3.7762-1.1293,7.4891-2.6096,10.9229-1.0367,2.4046-2.26,4.7683-4.0344,6.5859-2.3429,2.3998-5.5681,3.6922-8.77869,3.6914-3.21061-.0009-6.38411-1.2598-8.94991-3.3697-3.3477-2.753-5.6376-6.8937-6.6845-11.328-1.0469-4.4344-.9009-9.1448,.0398-13.6075,.911-4.3223,2.6832-8.6314,5.89961-11.3351,1.25779-1.0572,2.65909-1.8077,4.14509-2.3045,6.3118-2.1099,13.2066,.7946,16.6297,6.5018,2.41421,4.0252,4.8393,9.4116,4.3429,14.2428Z" style="fill:#263238;"></path><path d="M352.09119,125.8587c-8.8814-3.6484-18.155-1.2022-19.0496,8.0302-.8948,9.2324,9.5039,18.0239,9.5039,18.0239l9.5457-26.0541Z" style="fill:#263238;"></path><path d="M347.81079,149.8252c.2431,2.0781-.3389,4.1687-1.621,5.8221-1.7245,2.1654-4.1882,1.0243-5.057-1.4394-.7909-2.2173-.8299-6.0295,1.543-7.3132,1.7321-.8914,3.8587-.2099,4.7501,1.5221,.22511,.4375,.3562,.9172,.3849,1.4084Z" style="fill:#b97964;"></path><path d="M343.43555,155.12402c-.07227,0-.14453-.03125-.19434-.09229-.08691-.10693-.07031-.26465,.03613-.35156,.97168-.79053,1.55859-2.05908,1.53418-3.31055-.00977-.47363-.10352-.83838-.28711-1.11523-.20898-.31299-.54688-.49463-.86621-.45801-.15137,.01709-.26172-.08057-.2793-.21631-.01758-.13721,.0791-.26221,.2168-.27979,.49023-.06445,1.02832,.20166,1.34473,.67725,.23828,.3584,.35938,.81055,.37109,1.38232,.02734,1.40186-.63086,2.82275-1.71777,3.70801-.04688,.0376-.10254,.05615-.1582,.05615Z" style="opacity:.3;"></path><path d="M371.42849,130.6246c.5144,1.2823,1.2937,2.6712,.6332,3.8846-.494,.9075-1.5424,1.3983-2.5696,1.5073-1.8662,.1978-3.7915-.7455-4.83709-2.3039-1.04561-1.5585-1.19811-3.6572-.45321-5.3798,.5137-1.188,1.5577-2.2597,2.84921-2.3419,0,0,2.39509-.3083,4.37749,4.6337Z" style="fill:#2483DB;"></path><g><path d="M372.94579,132.2681l-4.4745-.3887s3.0742,2.0839,2.8531,6.5061c-.2212,4.4221-.9767,21.2912-.8779,21.1275s4.2682-7.5663,4.3419-13.3888-1.8426-13.8561-1.8426-13.8561Z" style="opacity:.3;"></path><path d="M406.22979,162.6532c-2.1921,.7908-4.6204,.9376-6.8797,.3588v-.0015c3.2154-1.0298,6.4076-2.7303,8.5962-4.7806,1.2719-1.1915,.4715-3.3843-1.2698-3.4546-4.6783-.1889-10.9952-2.5328-13.1782-4.9907-2.9139-3.2809-4.3268-7.5825-5.9462-11.6609-1.6193-4.0783-3.6879-8.2565-7.3663-10.6492-3.6783-2.3927-10.2076-2.3373-12.5645,1.3641l.85,3.0408,.0005,.0005c8.7641,2.607,3.4875,15.4301,4.85621,23.9056,1.16789,7.2319,2.88209,12.4717,9.84829,15.9375,5.54271,2.7575,12.0175,3.2559,17.8919,1.3021,2.7029-.899,5.3797-2.3345,7.0906-4.6388,.60721-.8178,1.0728-1.7591,1.3515-2.7444,.5608-1.9828-1.3422-3.6879-3.2805-2.9887Z" style="fill:#263238;"></path></g></g><g><path d="M369.98519,432.4111l.0233,21.5136-10.8187,.7765-3.8024-20.2107c4.9481-3.2995,9.817-4.0873,14.5978-2.0794Z" style="fill:#b97964;"></path><path d="M369.63159,451.6797c1.0645,2.839,1.1343,14.4563,1.1343,14.4563l-22.9321,.0247c-1.3624-4.2011,.746-7.0686,3.4206-7.4493,1.1495-.1621,2.5014-1.3424,3.4871-2.3732,.0067-.1335,1.409-6.5867,2.27551-6.8953,0,0,.59719-.6712,1.10609-.0011,.50891,.6696,.95,2.8504,.95,2.8504,3.5797-4.4437,7.0878-3.8504,10.5585-.6125Z" style="fill:#263238;"></path><path d="M369.90969,455.0524c-2.5912-.9547-5.3716-.5921-7.63069,.9948-.39541,.2779-.77041-.3716-.37821-.6471,2.4067-1.6907,5.4484-2.0874,8.2081-1.0703,.4488,.1652,.2549,.8899-.1992,.7226h0Z" style="fill:#fff;"></path><path d="M347.90269,464.4615h.00031l22.59469-.0243c.2069-.0003,.3746-.1682,.3744-.3752-.00009-.2068-.16809-.3743-.3748-.3743h-.0004l-22.5946,.0244c-.207,.0002-.3746,.168-.3744,.3752,.0004,.2065,.16811,.3742,.3748,.3742Z" style="fill:#fff;"></path></g><g><path d="M340.63359,432.4111l.0232,21.5136-10.8186,.7765-3.8024-20.2107c4.948-3.2995,9.8169-4.0873,14.5978-2.0794Z" style="fill:#b97964;"></path><path d="M340.27989,451.6797c1.0646,2.839,1.1343,14.4563,1.1343,14.4563l-22.9321,.0247c-1.3624-4.2011,.746-7.0686,3.4206-7.4493,1.1495-.1621,2.5014-1.3424,3.4871-2.3732,.0067-.1335,1.4091-6.5867,2.2755-6.8953,0,0,.5973-.6712,1.1061-.0011,.5089,.6696,.95,2.8504,.95,2.8504,3.5797-4.4437,7.0879-3.8504,10.5585-.6125Z" style="fill:#263238;"></path><path d="M340.558,455.0524c-2.59111-.9547-5.37161-.5921-7.63061,.9948-.3955,.2779-.7705-.3716-.3783-.6471,2.4068-1.6907,5.4485-2.0874,8.2081-1.0703,.44881,.1652,.2549,.8899-.19919,.7226h0Z" style="fill:#fff;"></path><path d="M318.55109,464.4615h.0003l22.5947-.0243c.207-.0003,.3745-.1682,.3743-.3752-.0001-.2068-.168-.3743-.3746-.3743h-.0005l-22.5946,.0244c-.207,.0002-.37469,.168-.3744,.3752,.0003,.2065,.1681,.3742,.3748,.3742Z" style="fill:#fff;"></path></g><path d="M373.47519,202.4093c.5383-.0162,4.26381,23.712,4.0142,24.4089-.9191,2.5665-28.3147-3.1647-28.3147-3.1647l-1.7265,7.3247s11.9624,5.8084,24.8301,7.9085c13.2772,2.1666,18.24371-3.7139,18.3052-12.7192,.0564-8.2526-3.3568-28.3174-3.3568-28.3174l-13.7515,4.5592Z" style="fill:#b97964;"></path><g><g><path d="M327.565,244.0351l42.436-2.4586c6.21239,8.1374,8.65829,23.8684,8.22369,37.3461-.4666,8.626-1.9272,19.8449-3.5236,30.5781-2.3054,15.5019-5.38409,29.9909-5.66909,34.1927-.02731,.002,.02779-.0019,0,0,.03189,5.4416,3.42629,23.7797,3.43109,31.9487,.0157,27.8302,.3752,70.483,.3752,70.483h-20.6209s-8.79139-95.6428-8.978-101.437c-.0207-.6433-.0463-1.2995-.0738-1.9611l-.5781-10.1211c-.6224-9.2559-1.4519-19.557-1.71149-29.965l-.96381-16.8749c-12.2488-4.4132-17.90019-19.3614-19.9635-22.5209,3.5639-11.7976,4.5251-14.1144,7.61631-19.21Z" style="fill:#263238;"></path><path d="M319.98649,263.12s-5.3711,23.5989-10.687,75.2199c-1.0142,9.8491,.812,20.2239,2.4497,29.4312l13.0569,78.4492,19.883-.0952c-1.7215-37.1958-4.5408-77.8015-8.2146-93.7338l23.5289-83.0502-40.0169-6.2211Z" style="fill:#263238;"></path></g></g><g><path d="M383.23549,183.1202c4.6351,2.5255,6.7997,18.9667,6.7997,18.9667l-16.1644,7.0068s-6.2619-14.0868-3.5839-20.3241c2.277-5.2655,7.0665-8.8671,12.9486-5.6494Z" style="fill:#2483DB;"></path><g style="opacity:.7;"><path d="M383.23549,183.1202c4.6351,2.5255,6.7997,18.9667,6.7997,18.9667l-16.1644,7.0068s-6.2619-14.0868-3.5839-20.3241c2.277-5.2655,7.0665-8.8671,12.9486-5.6494Z" style="fill:#fff;"></path></g><path d="M378.55919,206.4234l6.3219-21.5566c-3.9993-5.9686-23.7872-10.5549-23.7872-10.5549l-13.0368,.7128s-5.0106,1.1179-9.3004,2.5169c-5.7272,1.8675-8.8241,3.3698-10.1894,6.5475,0,0-.5929,11.7432,.8439,26.252,.3952,3.9897-.4986,20.3426-1.6124,27.1946l-7.48079,20.8267c36.99409,15.4177,57.17819-.1524,57.17819-.1524-.5263-5.8516-5.9469-16.3352-6.431-19.5363,.3497-4.084,.5387-5.7823,2.2686-12.9334,.3337-1.3805,4.6455-17.9757,5.2254-19.3169Z" style="fill:#2483DB;"></path><path d="M378.55919,206.4234l6.3219-21.5566c-3.9993-5.9686-23.7872-10.5549-23.7872-10.5549l-13.0368,.7128s-5.0106,1.1179-9.3004,2.5169c-5.7272,1.8675-8.8241,3.3698-10.1894,6.5475,0,0-.5929,11.7432,.8439,26.252,.3952,3.9897-.4986,20.3426-1.6124,27.1946l-7.48079,20.8267c36.99409,15.4177,57.17819-.1524,57.17819-.1524-.5263-5.8516-5.9469-16.3352-6.431-19.5363,.3497-4.084,.5387-5.7823,2.2686-12.9334,.3337-1.3805,4.6455-17.9757,5.2254-19.3169Z" style="fill:#fff; opacity:.7;"></path><path d="M324.33939,185.7063c-5.207,9.8882-7.2428,18.5281-7.2428,18.5281l20.8226,3.9251s4.5852-21.514,2.3459-26.853c-2.0789-4.9558-3.5733-2.5933-11.0817,.1634-2.08,.7635-3.8116,2.2758-4.844,4.2364Z" style="fill:#2483DB;"></path><path d="M324.33939,185.7063c-5.207,9.8882-7.2428,18.5281-7.2428,18.5281l20.8226,3.9251s4.5852-21.514,2.3459-26.853c-2.0789-4.9558-3.5733-2.5933-11.0817,.1634-2.08,.7635-3.8116,2.2758-4.844,4.2364Z" style="fill:#fff; opacity:.7;"></path></g><polyline points="328.98889 226.4968 334.67329 210.5126 336.76259 210.734 337.09169 208.0035 331.66949 206.9814 329.44859 216.6492 328.98889 225.7486" style="opacity:.3;"></polyline><g><path d="M318.90789,204.5759l-5.89889,14.7947-10.20271-13.4412-7.1596,2.9919s5.4302,10.8507,10.36831,21.4784c5.25839,11.317,12.35669,9.349,16.64659,1.4307,3.9313-7.256,10.48341-24.5709,10.48341-24.5709l-14.23711-2.6836Z" style="fill:#b97964;"></path><path d="M302.72059,206.1178s1.8011-2.6925,1.2493-5.3138c-.5517-2.621-.2948-4.861-.8397-6.7812-.545-1.9203-1.6826,.5219-2.0251,1.9436-.3423,1.4214-.7448,3.0295-1.771,2.5996-1.0263-.4297-6.8442-8.0272-8.3348-8.461-1.4905-.4342-.9338,1.0891-.9338,1.0891,0,0-1.4628-1.8072-2.33649-1.4228-.22691,.0999-.59271,.7002-.05521,1.6282,1.2091,2.0876,3.9725,6.3386,3.9725,6.3386-.1536-.2472-3.9392-5.2505-4.6039-5.9259-.869-.8827-1.7289-.8558-2.224-.3352-.7051,.7407,3.7773,7.104,3.77861,7.5045,0,0-2.45791-3.7497-3.77311-3.645-1.3152,.1048,.1033,2.5497,1.7635,4.4679,1.522,1.7584,4.0473,5.6064,5.7678,7.2438,2.12,2.0177,3.9969,2.8962,6.54181,1.8686,2.54489-1.0279,3.82359-2.799,3.82359-2.799Z" style="fill:#b97964;"></path></g><polygon points="378.30609 207.1711 381.23369 197.3035 377.07209 222.9181 375.96229 215.6605 378.30609 207.1711" style="opacity:.3;"></polygon></g></g></svg>
